<?xml version="1.0" encoding="UTF-8" standalone="no"?>
<svg width="440px" height="198px" viewBox="0 0 440 198" version="1.1" xmlns="http://www.w3.org/2000/svg" xmlns:xlink="http://www.w3.org/1999/xlink" xmlns:sketch="http://www.bohemiancoding.com/sketch/ns">
    <!-- Generator: Sketch 3.3.2 (12043) - http://www.bohemiancoding.com/sketch -->
    <title>golden_ratio</title>
    <desc>Created with Sketch.</desc>
    <defs></defs>
    <g id="Page-1" stroke="none" stroke-width="1" fill="none" fill-rule="evenodd" sketch:type="MSPage">
        <g id="golden_ratio" sketch:type="MSArtboardGroup">
            <g id="Parthenon-+-Golden-ratio" sketch:type="MSLayerGroup" transform="translate(50.000000, 0.000000)">
                <g id="Parthenon" transform="translate(0.000000, 2.085729)" stroke="#9B9B9B" sketch:type="MSShapeGroup">
                    <g id="fundamentum" transform="translate(0.000000, 180.491854)">
                        <path d="M9.82206406,10.3981406 L9.82206406,4.92768732 L335.177936,4.92768732 L335.17793,10.3981406" id="Rectangle-2"></path>
                        <rect id="Rectangle-1" x="0" y="9.85537464" width="345" height="5.54364824"></rect>
                        <path d="M17,5.36841965 L17,0 L328.425267,0 L328.425262,5.59445143" id="Rectangle-3"></path>
                    </g>
                    <g id="colonnade" transform="translate(19.000918, 71.698694)">
                        <g id="Column" transform="translate(0.029331, 1.000000)">
                            <path d="M0.242133571,108.215576 C0.242133571,107.422956 0.199989999,91.3550987 0.199989998,87.6041434 C0.199989998,83.853188 0.84260477,64.030399 0.842604769,61.3587674 C0.842604768,55.9643536 2.97169796,22.3584227 3.29306806,15.324221 C3.61443817,8.29001933 3.662235,8.00627702 3.662235,8.00627702 C3.662235,8.00627702 0.24213357,5.55145394 0.242133571,4.1615762 C0.242133573,2.77169847 0.242133571,0.705574317 0.242133571,0.215576454 L13.588556,0.215576454 M13.47129,0.215576454 L22.7029047,0.215576454 C22.7029047,0.6042127 22.7029047,2.77291334 22.7029047,4.16279108 C22.7029047,5.55266882 19.1788196,8.0074919 19.1788196,8.0074919 C19.1788196,8.0074919 19.3120162,8.48411145 19.7890967,15.2383756 C20.2661773,21.9926397 21.4774439,55.892582 21.4774439,61.2869958 C21.4774439,63.9586273 21.8032091,84.0038065 21.8032091,87.7547619 C21.8032091,91.5057172 21.803209,107.535835 21.803209,108.215576" id="Path-1"></path>
                        </g>
                        <g id="Column-Copy" transform="translate(36.011813, 1.000000)">
                            <path d="M0.242133571,108.215576 C0.242133571,107.422956 0.199989999,91.3550987 0.199989998,87.6041434 C0.199989998,83.853188 0.84260477,64.030399 0.842604769,61.3587674 C0.842604768,55.9643536 2.97169796,22.3584227 3.29306806,15.324221 C3.61443817,8.29001933 3.662235,8.00627702 3.662235,8.00627702 C3.662235,8.00627702 0.24213357,5.55145394 0.242133571,4.1615762 C0.242133573,2.77169847 0.242133571,0.705574317 0.242133571,0.215576454 L13.588556,0.215576454 M13.47129,0.215576454 L22.7029047,0.215576454 C22.7029047,0.6042127 22.7029047,2.77291334 22.7029047,4.16279108 C22.7029047,5.55266882 19.1788196,8.0074919 19.1788196,8.0074919 C19.1788196,8.0074919 19.3120162,8.48411145 19.7890967,15.2383756 C20.2661773,21.9926397 21.4774439,55.892582 21.4774439,61.2869958 C21.4774439,63.9586273 21.8032091,84.0038065 21.8032091,87.7547619 C21.8032091,91.5057172 21.803209,107.535835 21.803209,108.215576" id="Path-1"></path>
                        </g>
                        <g id="Column-Copy-2" transform="translate(76.971254, 1.000000)">
                            <path d="M0.242133571,108.215576 C0.242133571,107.422956 0.199989999,91.3550987 0.199989998,87.6041434 C0.199989998,83.853188 0.84260477,64.030399 0.842604769,61.3587674 C0.842604768,55.9643536 2.97169796,22.3584227 3.29306806,15.324221 C3.61443817,8.29001933 3.662235,8.00627702 3.662235,8.00627702 C3.662235,8.00627702 0.24213357,5.55145394 0.242133571,4.1615762 C0.242133573,2.77169847 0.242133571,0.705574317 0.242133571,0.215576454 L13.588556,0.215576454 M13.47129,0.215576454 L22.7029047,0.215576454 C22.7029047,0.6042127 22.7029047,2.77291334 22.7029047,4.16279108 C22.7029047,5.55266882 19.1788196,8.0074919 19.1788196,8.0074919 C19.1788196,8.0074919 19.3120162,8.48411145 19.7890967,15.2383756 C20.2661773,21.9926397 21.4774439,55.892582 21.4774439,61.2869958 C21.4774439,63.9586273 21.8032091,84.0038065 21.8032091,87.7547619 C21.8032091,91.5057172 21.803209,107.535835 21.803209,108.215576" id="Path-1"></path>
                        </g>
                        <g id="Column-Copy-3" transform="translate(120.963494, 1.000000)">
                            <path d="M0.242133571,108.215576 C0.242133571,107.422956 0.199989999,91.3550987 0.199989998,87.6041434 C0.199989998,83.853188 0.84260477,64.030399 0.842604769,61.3587674 C0.842604768,55.9643536 2.97169796,22.3584227 3.29306806,15.324221 C3.61443817,8.29001933 3.662235,8.00627702 3.662235,8.00627702 C3.662235,8.00627702 0.24213357,5.55145394 0.242133571,4.1615762 C0.242133573,2.77169847 0.242133571,0.705574317 0.242133571,0.215576454 L13.588556,0.215576454 M13.47129,0.215576454 L22.7029047,0.215576454 C22.7029047,0.6042127 22.7029047,2.77291334 22.7029047,4.16279108 C22.7029047,5.55266882 19.1788196,8.0074919 19.1788196,8.0074919 C19.1788196,8.0074919 19.3120162,8.48411145 19.7890967,15.2383756 C20.2661773,21.9926397 21.4774439,55.892582 21.4774439,61.2869958 C21.4774439,63.9586273 21.8032091,84.0038065 21.8032091,87.7547619 C21.8032091,91.5057172 21.803209,107.535835 21.803209,108.215576" id="Path-1"></path>
                        </g>
                        <g id="Column-Copy-4" transform="translate(163.935025, 1.000000)">
                            <path d="M0.242133571,108.215576 C0.242133571,107.422956 0.199989999,91.3550987 0.199989998,87.6041434 C0.199989998,83.853188 0.84260477,64.030399 0.842604769,61.3587674 C0.842604768,55.9643536 2.97169796,22.3584227 3.29306806,15.324221 C3.61443817,8.29001933 3.662235,8.00627702 3.662235,8.00627702 C3.662235,8.00627702 0.24213357,5.55145394 0.242133571,4.1615762 C0.242133573,2.77169847 0.242133571,0.705574317 0.242133571,0.215576454 L13.588556,0.215576454 M13.47129,0.215576454 L22.7029047,0.215576454 C22.7029047,0.6042127 22.7029047,2.77291334 22.7029047,4.16279108 C22.7029047,5.55266882 19.1788196,8.0074919 19.1788196,8.0074919 C19.1788196,8.0074919 19.3120162,8.48411145 19.7890967,15.2383756 C20.2661773,21.9926397 21.4774439,55.892582 21.4774439,61.2869958 C21.4774439,63.9586273 21.8032091,84.0038065 21.8032091,87.7547619 C21.8032091,91.5057172 21.803209,107.535835 21.803209,108.215576" id="Path-1"></path>
                        </g>
                        <g id="Column-Copy-5" transform="translate(207.520434, 1.000000)">
                            <path d="M0.242133571,108.215576 C0.242133571,107.422956 0.199989999,91.3550987 0.199989998,87.6041434 C0.199989998,83.853188 0.84260477,64.030399 0.842604769,61.3587674 C0.842604768,55.9643536 2.97169796,22.3584227 3.29306806,15.324221 C3.61443817,8.29001933 3.662235,8.00627702 3.662235,8.00627702 C3.662235,8.00627702 0.24213357,5.55145394 0.242133571,4.1615762 C0.242133573,2.77169847 0.242133571,0.705574317 0.242133571,0.215576454 L13.588556,0.215576454 M13.47129,0.215576454 L22.7029047,0.215576454 C22.7029047,0.6042127 22.7029047,2.77291334 22.7029047,4.16279108 C22.7029047,5.55266882 19.1788196,8.0074919 19.1788196,8.0074919 C19.1788196,8.0074919 19.3120162,8.48411145 19.7890967,15.2383756 C20.2661773,21.9926397 21.4774439,55.892582 21.4774439,61.2869958 C21.4774439,63.9586273 21.8032091,84.0038065 21.8032091,87.7547619 C21.8032091,91.5057172 21.803209,107.535835 21.803209,108.215576" id="Path-1"></path>
                        </g>
                        <g id="Column-Copy-6" transform="translate(250.491964, 1.000000)">
                            <path d="M0.242133571,108.215576 C0.242133571,107.422956 0.199989999,91.3550987 0.199989998,87.6041434 C0.199989998,83.853188 0.84260477,64.030399 0.842604769,61.3587674 C0.842604768,55.9643536 2.97169796,22.3584227 3.29306806,15.324221 C3.61443817,8.29001933 3.662235,8.00627702 3.662235,8.00627702 C3.662235,8.00627702 0.24213357,5.55145394 0.242133571,4.1615762 C0.242133573,2.77169847 0.242133571,0.705574317 0.242133571,0.215576454 L13.588556,0.215576454 M13.47129,0.215576454 L22.7029047,0.215576454 C22.7029047,0.6042127 22.7029047,2.77291334 22.7029047,4.16279108 C22.7029047,5.55266882 19.1788196,8.0074919 19.1788196,8.0074919 C19.1788196,8.0074919 19.3120162,8.48411145 19.7890967,15.2383756 C20.2661773,21.9926397 21.4774439,55.892582 21.4774439,61.2869958 C21.4774439,63.9586273 21.8032091,84.0038065 21.8032091,87.7547619 C21.8032091,91.5057172 21.803209,107.535835 21.803209,108.215576" id="Path-1"></path>
                        </g>
                        <g id="Column-Copy-7" transform="translate(285.483067, 1.000000)">
                            <path d="M0.242133571,108.215576 C0.242133571,107.422956 0.199989999,91.3550987 0.199989998,87.6041434 C0.199989998,83.853188 0.84260477,64.030399 0.842604769,61.3587674 C0.842604768,55.9643536 2.97169796,22.3584227 3.29306806,15.324221 C3.61443817,8.29001933 3.662235,8.00627702 3.662235,8.00627702 C3.662235,8.00627702 0.24213357,5.55145394 0.242133571,4.1615762 C0.242133573,2.77169847 0.242133571,0.705574317 0.242133571,0.215576454 L13.588556,0.215576454 M13.47129,0.215576454 L22.7029047,0.215576454 C22.7029047,0.6042127 22.7029047,2.77291334 22.7029047,4.16279108 C22.7029047,5.55266882 19.1788196,8.0074919 19.1788196,8.0074919 C19.1788196,8.0074919 19.3120162,8.48411145 19.7890967,15.2383756 C20.2661773,21.9926397 21.4774439,55.892582 21.4774439,61.2869958 C21.4774439,63.9586273 21.8032091,84.0038065 21.8032091,87.7547619 C21.8032091,91.5057172 21.803209,107.535835 21.803209,108.215576" id="Path-1"></path>
                        </g>
                    </g>
                    <g id="entablement" transform="translate(14.733096, 0.015306)">
                        <path d="M308.781142,45.1254945 L308.781139,72.2993489 L6.75266904,72.2993489 L6.75266904,45.1254945" id="Rectangle-4"></path>
                        <rect id="Rectangle-5" x="1.22775801" y="41.8853422" width="313.078292" height="3.69576549"></rect>
                        <path d="M1.51571645,42.2818505 L1.51571645,38.998484 L0.260057954,36.3356693 L158.38479,0.226587069" id="Path-19"></path>
                        <path d="M159.228746,42.26857 L159.228746,38.805538 L158.026962,37.1225411 L315.284678,0.226587069" id="Path-19-Copy" transform="translate(236.655820, 21.247579) scale(-1, 1) translate(-236.655820, -21.247579) "></path>
                        <path d="M1.78271622,38.7115221 L158.345648,3.49681326 L314.087514,39.3357293" id="Path-19"></path>
                    </g>
                </g>
                <g id="Golden-ratio" transform="translate(172.005010, 96.645645) rotate(180.000000) translate(-172.005010, -96.645645) translate(18.836907, 0.858332)" stroke="#000000" stroke-width="2" sketch:type="MSShapeGroup">
                    <path d="M189.00168,0.25343798 C84.6189343,0.25343798 0,85.3544744 0,190.331923 M305.811016,117.728276 C305.811016,52.8487145 253.513695,0.25343798 189.00168,0.25343798 M233.618673,190.078485 L233.618673,190.078485 C273.489403,190.078485 305.811016,157.572725 305.811016,117.474838 M189.001676,145.20729 C189.001676,169.988967 208.977386,190.078485 233.618673,190.078485 L233.618673,190.078485 M216.577022,117.474838 C201.347579,117.474838 189.001676,129.89108 189.001676,145.20729 M233.596623,134.613581 C233.596623,125.148115 225.966815,117.474838 216.554971,117.474838 M223.064189,145.20729 L223.064189,145.20729 C228.881092,145.20729 233.596623,140.464893 233.596623,134.61485 M216.577022,138.660987 C216.577022,142.27641 219.491298,145.20729 223.08624,145.20729 L223.08624,145.20729 M220.578187,134.613581 C219.46731,134.613581 218.46159,135.066376 217.733547,135.798463 C217.005369,136.530686 216.554971,137.542305 216.554971,138.659719" id="Curve-21"></path>
                </g>
            </g>
        </g>
    </g>
</svg>