<?xml version="1.0" encoding="UTF-8" standalone="no"?>
<svg width="440px" height="198px" viewBox="0 0 440 198" version="1.1" xmlns="http://www.w3.org/2000/svg" xmlns:xlink="http://www.w3.org/1999/xlink" xmlns:sketch="http://www.bohemiancoding.com/sketch/ns">
    <!-- Generator: Sketch 3.3.2 (12043) - http://www.bohemiancoding.com/sketch -->
    <title>Artboard</title>
    <desc>Created with Sketch.</desc>
    <defs></defs>
    <g id="Page-1" stroke="none" stroke-width="1" fill="none" fill-rule="evenodd" sketch:type="MSPage">
        <g id="Artboard" sketch:type="MSArtboardGroup" stroke-linecap="square" stroke="#000000" stroke-width="2">
            <g id="Group" sketch:type="MSLayerGroup" transform="translate(220.000000, 99.500000) rotate(90.000000) translate(-220.000000, -99.500000) translate(121.000000, -121.000000)">
                <path d="M197.528489,264.985551 L197.322555,264.947759 L190.175591,263.564385 L183.825962,262.242533 L178.177739,260.978688 L173.090115,259.760546 L168.452201,258.582832 L164.220875,257.439395 L160.356533,256.32672 L155.911352,254.960924 L151.862198,253.628525 L148.165948,252.327767 L144.79004,251.053375 L139.970833,249.089934 L135.656782,247.1678 L131.79244,245.282579 L128.326765,243.435151 L122.297477,239.816758 L117.195772,236.30471 L113.740658,233.6821 L110.626127,231.134196 L105.221682,226.29063 L100.636571,221.844321 L99.8665192,221.082323 L98.1090402,219.328057 L97.1295339,218.35952 L93.2968745,214.689272 L89.7352735,211.637763 L86.2695989,209.22433 L82.7801627,207.456001 L79.016148,206.299381 L74.6915353,205.756227 L69.472782,205.849389 L64.9871185,206.323111 L59.4937867,207.198486 L54.253912,208.197785 L47.797795,209.550398 L41.4314442,210.937288 L37.705272,211.758172 L33.5557911,212.673976 L29.9704285,213.464098 L25.9960795,214.332442 L21.5852209,215.283402 L16.6903296,216.33104 L12.3032327,217.251239 L7.44618397,218.256689 L2.0522989,219.348272 L0.704927711,219.616333" id="Stroke-1" sketch:type="MSShapeGroup"></path>
                <path d="M197.528489,280.891715 L196.260323,280.829314 L190.787233,280.592892 L184.626816,280.393384 L179.012916,280.29407 L173.89449,280.290554 L169.209052,280.383716 L163.794046,280.627169 L158.83051,281.018276 L154.264761,281.557036 L150.050156,282.261027 L146.113649,283.119703 L142.404198,284.142732 L135.556455,286.772373 L132.252711,288.472148 L129.062495,290.43559 L125.962045,292.690823 L122.919679,295.283551 L119.922197,298.249807 L116.934394,301.651993 L113.943952,305.527901 L110.918307,310.00497 L108.965455,313.232257 L106.979161,316.785612 L104.947103,320.70898 L102.867522,325.052458 L100.718417,329.882842 L98.4980265,335.273078 L97.2465818,338.414234 L95.9678553,341.754897 L94.5720808,345.719573 L93.1349435,349.987467 L90.9039926,356.874454 L89.7423139,360.63347 L88.5559936,364.602541 L87.335351,368.828247 L86.0777459,373.35014 L84.7849384,378.173492 L83.4507681,383.295667 L82.0725948,388.788734 L80.642498,394.731793 L79.1604777,401.117813 L77.6238937,407.952946 L76.7200726,412.100432 L75.7916097,416.446546 L74.8429055,420.9992 L73.8704397,425.781244 L72.8733322,430.804105 L71.8489429,436.087996 L71.0199268,440.478934" id="Stroke-2" sketch:type="MSShapeGroup"></path>
                <path d="M89.3225255,0.185445941 L89.3330862,0.271577231 L89.9966511,5.45527468 L90.6426149,10.3849727 L91.2718575,15.0747336 L92.0964733,21.0933772 L92.8946873,26.7824368 L93.6717799,32.1586113 L94.4207106,37.2429941 L95.1458797,42.0461319 L95.8508074,46.5847236 L96.5346136,50.8763469 L97.1946583,54.9377009 L97.8379819,58.7933945 L98.4637042,62.4697944 L99.6597052,69.3225053 L100.794102,75.5643872 L101.866895,81.2666301 L102.946728,86.8212195 L103.967597,91.9126334 L104.933022,96.5918476 L105.850924,100.904564 L106.717783,104.886818 L107.542399,108.580796 L108.346773,112.12712 L109.107145,115.415929 L109.877197,118.61597 L110.605886,121.592773 L111.984059,127.143847 L113.217903,131.970714 L114.321497,136.190269 L115.477016,140.516169 L116.487324,144.265517 L118.158557,150.437966 L119.430243,155.237588 L120.385988,159.024729 L121.547667,164.222488 L122.146107,167.803089 L122.369642,170.3299 L122.352041,172.152719 L122.108265,173.845463 L121.733359,175.03636 L121.29685,175.898551 L120.840099,176.540142 L120.286541,177.141303 L119.763786,177.590416 L119.275353,177.948125 L118.808041,178.260131 L118.382092,178.524677 L118.000146,178.747915 L117.635802,178.953576 L117.305779,179.13199 L117.0136,179.290191 L116.600852,179.506398 L116.250588,179.688328 L115.951368,179.843013 L115.425092,180.11459 L115.050187,180.302673 L114.775608,180.437143 L114.589916,180.522395" id="Stroke-3" sketch:type="MSShapeGroup"></path>
                <path d="M175.310505,267.024578 L170.906687,266.289825 L166.846973,265.59638 L159.600562,264.312321 L153.295815,263.152185 L150.448823,262.616941 L147.767281,262.105426 L143.074804,261.201927 L138.795074,260.378406 L134.879689,259.62256 L131.283766,258.943177 L124.803007,257.768979 L119.042137,256.845265 L112.187353,255.997136 L105.865005,255.606029 L99.8559584,255.739621 L93.8328308,256.481405 L87.5386448,257.968488 L80.6935415,260.395105 L75.7502469,262.647702 L70.2331535,265.579681 L63.9284068,269.376489 L61.8206641,270.712403 L59.6064343,272.153784 L57.4582089,273.63032 L55.1964558,275.220234 L50.4071717,278.660212 L45.0379283,282.669711 L42.0914888,284.925824 L38.9426357,287.370019 L35.5940091,290.006691 L31.9919253,292.879785 L28.1073424,296.02094 L23.905938,299.451251 L19.3340286,303.220813 L14.3212093,307.388513 L8.81819683,311.999173 L5.86823717,314.488192 L2.77394775,317.10465 L0.704927711,318.8554" id="Stroke-4" sketch:type="MSShapeGroup"></path>
                <path d="M46.7390834,0.185445941 L46.8869334,2.31060369 L47.2688792,7.78960842 L47.6332239,12.9943992 L47.9834876,17.9416751 L48.3170302,22.6454982 L48.7095368,28.0972573 L49.0809219,33.2774392 L49.4347058,38.200985 L49.7717686,42.8731681 L50.0912303,47.3159606 L50.3939708,51.535515 L50.6826303,55.5450144 L50.9536886,59.3629157 L51.3118729,64.378745 L51.6454155,69.1203604 L51.9543164,73.6000664 L52.2429759,77.8266519 L52.5113941,81.822968 L52.7551706,85.5960458 L53.1890399,92.5304936 L53.5498644,98.7855588 L53.8490846,104.48165 L54.0858206,109.672378 L54.2644727,114.421025 L54.4052823,119.33666 L54.4809674,123.827792 L54.4985686,127.950668 L54.4572058,131.747476 L54.2063888,138.514935 L54.0277367,141.642028 L53.7971611,144.553793 L53.411695,147.419855 L52.9619846,150.101351 L51.9375952,155.141789 L50.6447877,159.597765 L49.0738814,163.58705 L46.9458974,167.614127 L44.3981249,171.270313 L41.3768805,174.659315 L37.8047187,177.831232 L33.5760325,180.851979 L28.5500123,183.780443 L22.5374454,186.671994 L19.0726509,188.123921 L15.2602328,189.586395 L10.2306924,191.344177 L4.47598294,193.153813 L0.704927711,194.227817" id="Stroke-5" sketch:type="MSShapeGroup"></path>
                <path d="M197.528489,321.313657 L194.520446,322.621447 L190.869958,324.424051 L187.380522,326.360248 L184.038936,328.444098 L180.834639,330.689663 L177.751791,333.092551 L174.78159,335.660669 L171.910835,338.427417 L169.122807,341.425313 L165.575286,345.751214 L162.140414,350.529742 L158.802348,355.830332 L155.536447,361.725052 L153.931218,364.918062 L152.33303,368.309702 L150.744523,371.900849 L149.166576,375.687989 L146.939145,381.198634 L144.717875,387.175091 L142.982397,392.633881 L141.235479,398.518933 L139.4824,404.643044 L137.718761,411.252302 L135.93488,418.409988 L135.034579,422.214706 L134.126358,426.169714 L133.211976,430.299622 L132.290554,434.622006 L131.362971,439.135989 L131.094553,440.478934" id="Stroke-6" sketch:type="MSShapeGroup"></path>
                <path d="M147.110757,0.185445941 L147.145079,0.587098999 L147.502383,4.86817568 L147.842966,8.96380642 L148.169468,12.8950846 L148.479249,16.6813458 L149.060089,23.8161806 L149.582844,30.4280755 L150.057196,36.5732794 L150.507787,42.4855773 L150.912614,47.9891909 L151.280479,53.4787423 L151.604341,58.5938863 L151.906201,63.5481933 L152.171099,68.1658851 L152.394634,72.4847541 L152.583847,76.5285303 L152.868986,83.8927556 L153.058199,91.2569809 L153.123324,97.7247377 L153.092522,103.47532 L152.975474,108.591343 L152.789781,113.171242 L152.542484,117.287087 L151.909722,124.370068 L151.204794,129.760304 L150.421541,134.342841 L149.592525,138.297849 L148.730066,141.721128 L146.962907,147.341634 L145.206308,151.725541 L142.508045,157.005917 L140.046519,160.867762 L137.821728,163.772496 L135.828393,166.020699 L133.456633,168.376126 L131.417535,170.147969" id="Stroke-7" sketch:type="MSShapeGroup"></path>
                <path d="M125.862599,265.143751 L119.498888,265.497066 L113.610409,266.372441 L106.872673,268.243599 L100.193021,271.227433 L96.7792702,273.239214 L93.2555117,275.679893 L89.5733425,278.618904 L85.6755587,282.175775 L81.1133299,286.90948 L78.6658843,289.686775 L76.0873097,292.791017 L73.3547248,296.268787 L70.4461279,300.182488 L67.3421578,304.573426 L64.0005717,309.558494 L61.6525728,313.232257 L59.173445,317.252303 L56.5403068,321.666971 L53.7452376,326.535147 L50.7583154,331.925384 L47.5575388,337.919418 L45.2746643,342.262896 L42.8791421,346.94211 L40.8435644,351.10981 L38.7155803,355.569302 L36.5400731,360.194025 L34.2607188,365.144816 L31.8713571,370.466499 L29.3614272,376.188957 L26.7247688,382.365801 L23.9473008,389.049765 L22.5207242,392.552144 L21.0563051,396.201298 L19.5505232,400.012169 L17.9998583,403.990907 L16.4087106,408.148939 L14.7647593,412.495053 L13.0768051,417.044192 L11.3378074,421.798991 L9.54336591,426.793727 L7.68996047,432.053887 L5.77495086,437.59793 L4.7989648,440.478934" id="Stroke-8" sketch:type="MSShapeGroup"></path>
                <path d="M197.528489,223.40611 L197.185266,223.276034 L193.10443,221.638661 L189.329854,220.048748 L185.86418,218.503658 L179.642159,215.551464 L174.220992,212.767138 L169.47659,210.144528 L165.289267,207.675724 L162.715093,206.099873 L160.338932,204.592576 L157.94693,202.965749 L155.739741,201.413628 L152.542484,199.126754 L149.709573,197.019174 L144.951971,193.297951 L141.132512,190.17701 L136.660049,186.396901 L133.287661,183.592361 L130.706446,181.559486 L128.69463,180.118106" id="Stroke-9" sketch:type="MSShapeGroup"></path>
                <path d="M122.420686,251.098199 L115.504298,248.708495 L113.451999,247.980774 L111.471865,247.277661 L107.769454,245.965477 L104.252736,244.747335 L97.5730839,242.628329 L93.7404245,241.592117 L89.8796032,240.736956 L85.9298959,240.088335 L81.7874555,239.67262 L76.9673693,239.539028 L71.6218875,239.789512 L65.5160342,240.513718 L58.3453089,241.818871 L52.7657313,243.085352 L46.2647313,244.75085 L42.5693612,245.763332 L38.5166869,246.9138 L35.5808082,247.757535 L32.4416357,248.677734 L29.6606475,249.509164 L26.6974869,250.401239 L20.3548977,252.324251 L16.8487404,253.388588 L13.0838455,254.531146 L9.02765101,255.760714 L4.64759456,257.07905 L0.704927711,258.260279" id="Stroke-10" sketch:type="MSShapeGroup"></path>
                <path d="M61.7722609,0.185445941 L62.1990898,4.50783049 L62.749127,10.0351742 L63.2850833,15.2812729 L63.8043184,20.266341 L64.3094726,24.9965309 L64.8014259,29.4973302 L65.3928259,34.815498 L65.9631045,39.8620885 L66.516662,44.6520429 L67.0526182,49.1906345 L67.5718534,53.4989568 L68.0770076,57.5875564 L68.5654406,61.4643434 L69.0397927,65.1477744 L69.6003907,69.4323666 L70.1433874,73.4937206 L70.6661428,77.3458986 L71.1748172,80.9985685 L72.1411226,87.7554803 L73.0484641,93.8391618 L73.6636257,97.8521768 L74.258546,101.632286 L75.3727014,108.535972 L76.3997309,114.643384 L77.3528354,120.051199 L78.2355351,124.888613 L79.0575108,129.258458 L79.8275629,133.216982 L80.5430513,136.804613 L81.3298246,140.629546 L82.0585139,144.083586 L83.3654023,150.04686 L84.4962789,155.010835 L85.0216744,157.273099 L85.5136277,159.347281 L86.005581,161.372246 L86.4623319,163.236373 L87.3115894,166.666683 L88.0367585,169.571417 L88.6589606,172.049889 L89.7115118,176.320419 L90.4437214,179.506398 L90.9242339,181.919832 L91.2032128,183.777807 L91.3202607,186.177178 L91.0685637,187.835645 L90.5158863,189.047635 L89.6939107,190.005626 L88.325418,191.014593 L86.4896138,191.98313 L84.0456884,193.040436 L79.504581,194.749878 L75.3445395,196.194775 L69.472782,198.114272 L63.8078386,199.872053" id="Stroke-11" sketch:type="MSShapeGroup"></path>
                <path d="M197.528489,367.026521 L195.748129,368.952171 L193.358767,371.86042 L191.017808,374.936538 L188.724373,378.177008 L186.486382,381.582709 L184.289753,385.187919 L182.130967,389.015488 L180.006503,393.063659 L177.916362,397.337704 L174.915359,403.692084 L173.436859,407.07054 L171.968919,410.600165 L169.789892,416.734822 L167.624065,423.340565 L165.461759,430.21349 L164.385446,433.852977 L163.309133,437.626055 L162.5294,440.478934" id="Stroke-12" sketch:type="MSShapeGroup"></path>
                <path d="M197.528489,296.357555 L195.043201,296.629132 L189.618514,297.398162 L184.596014,298.291115 L179.927298,299.320296 L175.571883,300.501525 L169.999346,302.38323 L164.845717,304.573426 L160.046752,307.110783 L155.539967,310.0287 L151.274319,313.379032 L147.197003,317.225058 L144.577065,319.919736 L142.019612,322.858747 L139.812423,325.978809 L137.626355,329.384511 L135.446447,332.955444 L133.2771,336.852445 L131.114794,341.115944 L128.948968,345.791643 L126.77346,350.934911 L124.573311,356.609908 L122.606378,362.12319 L120.606003,368.190172 L118.570425,374.877652 L117.532835,378.479346 L116.483804,382.259455 L115.421572,386.252256 L114.339099,390.481478 L113.242544,394.965578 L112.121349,399.720377 L110.983432,404.763452 L109.821753,410.112381 L108.635433,415.780347 L107.425351,421.788444 L106.541771,426.334067 L105.63795,431.116111 L104.720048,436.146003 L103.953516,440.478934" id="Stroke-13" sketch:type="MSShapeGroup"></path>
                <path d="M197.528489,181.384587 L194.644534,180.539973 L190.711548,179.383353 L183.818921,177.35751 L177.981486,175.668282 L175.297304,174.902768 L172.814656,174.212839 L170.34961,173.560702 L168.064095,172.979755 L163.818688,171.943543 L160.15676,171.140237 L156.966544,170.532045 L151.160791,169.728739 L146.650486,169.440462 L143.064243,169.488801" id="Stroke-14" sketch:type="MSShapeGroup"></path>
                <path d="M32.2145803,0.185445941 L32.3043464,2.79487248 L32.4935592,8.65531578 L32.6616506,14.2239674 L32.8095006,19.5140106 L32.9406295,24.5474177 L33.0541572,29.3329777 L33.1465634,33.8856316 L33.2257688,38.2211995 L33.3049741,43.7898511 L33.3560176,49.0667109 L33.3841795,54.0588102 L33.3806593,58.7828478 L33.3560176,63.2564016 L33.3049741,67.4891393 L33.229289,71.5021543 L33.1298423,75.3033566 L32.8614241,82.3784269 L32.5076402,88.843547 L32.0676104,94.7584815 L31.544855,100.197057 L30.8883306,105.566201 L30.1385198,110.516992 L29.2927826,115.100407 L28.3511189,119.361269 L27.3126486,123.329461 L26.1676911,127.044532 L24.9752104,130.632164 L23.6788826,134.000073 L22.0428519,137.196599 L20.2616113,140.227893 L16.3911094,145.991658 L11.850002,151.234241 L6.52124137,156.06814 L3.16293407,158.609013 L0.704927711,160.242871" id="Stroke-15" sketch:type="MSShapeGroup"></path>
                <path d="M163.236968,271.886601 L158.290153,271.549986 L153.752566,271.305654 L149.586364,271.151848 L145.742264,271.092963 L141.276842,271.141302 L137.137922,271.326748 L133.280621,271.659847 L129.667976,272.157299 L125.610902,272.967637 L121.754481,274.031973 L118.04855,275.384586 L114.442066,277.059752 L110.891025,279.102294 L107.349666,281.574613 L103.781904,284.54087 L100.124377,288.110924 L97.7174137,290.782751 L95.2356457,293.799983 L92.6676319,297.212716 L89.9860904,301.099171 L87.1707799,305.524385 L84.1935384,310.605253 L82.6331928,313.427371 L81.0235638,316.452513 L79.3532108,319.714076 L77.6168533,323.249853 L75.5610341,327.630245 L73.3987278,332.440414 L71.126414,337.744519 L68.7238514,343.619025 L67.4688864,346.797972 L66.1760789,350.145667 L64.8427887,353.688476 L63.4637353,357.443976 L62.0441993,361.409531 L60.5727397,365.607992 L59.0502366,370.074514 L57.4722898,374.853922 L56.100277,379.107753 L54.6877814,383.608552 L53.2233623,388.38005 L51.7105399,393.440703 L50.1431538,398.820393 L48.5168037,404.55076 L46.8631718,410.456027 L45.1444155,416.748885 L43.4731823,423.230704 L41.7341846,430.158999 L39.9599846,437.343931 L39.2040134,440.478934" id="Stroke-16" sketch:type="MSShapeGroup"></path>
                <path d="M117.989586,0.185445941 L118.258004,2.36509492 L119.145104,9.39622065 L120.007562,16.1768625 L120.829538,22.5039968 L121.664714,28.7045708 L122.458528,34.5070073 L123.235621,40.1336657 L123.971351,45.40701 L124.672758,50.3578014 L125.339843,55.00977 L125.976126,59.3936769 L126.577207,63.5306155 L127.254853,68.1316084 L127.893776,72.4223528 L128.495737,76.4494301 L129.066015,80.2532691 L130.108006,87.2299036 L131.036469,93.4542077 L131.857564,99.0430738 L132.586254,104.072965 L133.226057,108.625619 L133.789295,112.759042 L134.631512,119.285685 L135.285396,124.864004 L135.77647,129.697903 L136.134654,133.900758 L136.52628,140.828175 L136.584364,146.252689 L136.212979,152.82767" id="Stroke-17" sketch:type="MSShapeGroup"></path>
                <path d="M177.355764,0.185445941 L177.355764,1.20144361 L177.352244,4.90245242 L177.314401,11.9098481 L177.256317,18.6491821 L177.160391,24.9209463 L176.981738,31.1865582 L176.771404,37.0303026 L176.544349,42.6842066 L176.293532,47.9610664 L176.015433,52.8916433 L175.716213,57.5154874 L175.396751,61.8519342 L175.059688,65.930866 L174.657501,70.2532506 L174.241233,74.2838434 L173.804723,78.066589 L173.361173,81.6340064 L172.446792,88.1808634 L171.501608,94.0210922 L170.538822,99.2627964 L169.562836,103.983318 L168.58333,108.258243 L167.602944,112.141182 L165.829624,118.365486 L164.093266,123.686291 L162.408832,128.303982 L160.778962,132.321392 L157.702274,138.960532 L154.866722,144.1996" id="Stroke-18" sketch:type="MSShapeGroup"></path>
                <path d="M99.4124084,261.621157 L93.4139224,263.550323 L87.0466915,266.478786 L83.6329404,268.414983 L80.0026947,270.739649 L76.1013907,273.516943 L71.8524631,276.854091 L66.6231492,281.351375 L63.7559151,283.981016 L60.6862674,286.920027 L57.386044,290.201805 L53.8174025,293.886115 L49.9504207,298.012506 L45.7182143,302.688205 L42.7242517,306.097422 L39.5269953,309.82304 L36.0965231,313.901093 L32.4108336,318.385193 L28.4303242,323.332469 L24.1189124,328.811474 L21.069506,332.721659 L17.8449678,336.917483 L15.0507787,340.6598 L12.1078595,344.645569 L9.08573494,348.771961 L5.89903926,353.173446 L2.53721172,357.886937 L0.704927711,360.485816" id="Stroke-19" sketch:type="MSShapeGroup"></path>
                <path d="M197.528489,141.126998 L193.85336,142.047197 L187.088342,143.935933 L183.994053,144.862284 L181.14794,145.771935 L178.33263,146.767719 L175.730294,147.732741 L170.899647,149.600383 L166.747526,151.344103 L163.130481,152.968293 L156.812533,156.064625 L151.817315,158.704812 L147.781362,160.967077" id="Stroke-20" sketch:type="MSShapeGroup"></path>
                <path d="M197.528489,250.730823 L195.259696,250.078686 L191.618889,248.987103 L185.025483,246.851399 L180.972809,245.430233 L177.194713,244.032796 L170.473698,241.309993 L164.667065,238.673321 L159.586481,236.112233 L153.604716,232.738172 L148.499491,229.482761 L144.120314,226.348636 L140.314937,223.330526 L137.000632,220.433702 L134.092036,217.662559 L132.83091,216.403109 L131.64459,215.170025 L130.348262,213.718098 L129.13818,212.310115 L124.979019,207.171241 L121.788803,202.701203 L119.330797,198.879786 L116.625493,194.135534 L114.80289,190.605909 L113.603369,188.048337 L112.829797,186.222002 L112.13543,184.285805" id="Stroke-21" sketch:type="MSShapeGroup"></path>
                <path d="M96.2978776,249.306141 L89.5152586,249.17958 L82.2653279,249.851932 L78.3147405,250.559439 L74.0350108,251.571921 L68.806577,253.120526 L62.8520939,255.211407 L59.5245887,256.506013 L55.9075439,257.992218 L51.9719176,259.688477 L47.6261834,261.637856 L41.1427846,264.655967 L37.5090187,266.390018 L33.5628316,268.298969 L29.2478996,270.403033 L24.5175794,272.724184 L21.1038283,274.406381 L17.4533413,276.208986 L14.242884,277.790989 L10.8256127,279.46967 L7.29481373,281.203722 L3.53079897,283.044119 L0.704927711,284.420462" id="Stroke-22" sketch:type="MSShapeGroup"></path>
                <path d="M54.1720665,2.6129421 L54.5152897,6.66374941 L54.8488323,10.5607509 L55.4886356,17.8898205 L56.0967567,24.7082547 L56.6811163,31.1215203 L57.238194,37.1296172 L57.7679898,42.7325455 L58.4482759,49.7874013 L59.0915994,56.3588672 L59.6997206,62.4460643 L60.2699992,68.0525082 L60.813876,73.2599357 L61.3260707,78.1527203 L61.8101034,82.7291043 L62.2712546,86.9926031 L62.8591344,92.4109644 L63.4126919,97.4470082 L63.9248866,102.102492 L64.4027589,106.380053 L64.8463089,110.345608 L65.2581768,114.063316 L66.0044673,120.764858 L66.458578,124.912343 L66.8704459,128.75749 L67.5683332,135.548679 L68.1218906,141.360783 L68.5451993,146.407373 L68.9570671,152.617615 L69.1603609,157.850531 L69.1709216,162.292444 L69.0019502,166.141107 L68.1773344,172.468241 L67.7918683,174.332368 L67.3351174,176.055873 L66.6539513,177.73807 L65.8803789,179.317436 L64.1273003,182.311817 L61.9447525,185.017043 L59.2596908,187.529791 L55.8151377,190.015294 L51.5626899,192.459489 L46.2480102,194.948508 L39.5164345,197.571996 L32.8781453,199.8035 L28.9662805,200.997912 L24.5967848,202.258242 L20.6813998,203.32961 L16.3224647,204.4625 L11.4610157,205.667459 L6.04336903,206.951518 L1.24792446,208.039585 L0.704927711,208.156477" id="Stroke-23" sketch:type="MSShapeGroup"></path>
                <path d="M15.5761742,0.185445941 L15.5629733,1.25681373 L15.4767275,5.75409752 L15.3737605,10.0694509 L15.2602328,14.2169362 L15.129104,18.2194046 L14.9847742,22.0750981 L14.8272435,25.7866536 L14.4725795,32.8283261 L14.0633518,39.4024286 L13.6268423,45.7401096 L13.1428095,51.6655908 L12.4722041,57.5225185 L11.7399946,63.0191011 L10.9734627,68.3539677 L10.1444466,73.3671604 L9.25118614,78.0876824 L8.29192121,82.5471739 L7.26401164,86.7596971 L6.17097766,90.7560132 L4.81304576,95.11619 L3.3583073,99.2188519 L1.80500217,103.101791 L0.704927711,105.545986" id="Stroke-24" sketch:type="MSShapeGroup"></path>
                <path d="M197.528489,110.9705 L195.968143,112.638634 L193.028745,115.75606 L190.278558,118.632669 L187.624299,121.39678 L185.142531,123.950837 L182.673964,126.439855 L180.357647,128.753974 L175.997832,133.069328 L172.13437,136.811645 L168.689817,140.090786 L165.173099,143.369048" id="Stroke-25" sketch:type="MSShapeGroup"></path>
            </g>
        </g>
    </g>
</svg>