<?xml version="1.0" encoding="UTF-8" standalone="no"?>
<svg width="440px" height="198px" viewBox="0 0 440 198" version="1.1" xmlns="http://www.w3.org/2000/svg" xmlns:xlink="http://www.w3.org/1999/xlink" xmlns:sketch="http://www.bohemiancoding.com/sketch/ns">
    <!-- Generator: Sketch 3.3.2 (12043) - http://www.bohemiancoding.com/sketch -->
    <title>automata</title>
    <desc>Created with Sketch.</desc>
    <defs></defs>
    <g id="Page-1" stroke="none" stroke-width="1" fill="none" fill-rule="evenodd" sketch:type="MSPage">
        <g id="automata" sketch:type="MSArtboardGroup">
            <path d="M98,154 C127.823376,154 152,129.823376 152,100 C152,70.1766235 127.823376,46 98,46 C96.5989642,46 95.2103902,46.0533557 93.8361992,46.1581459 C65.9584513,48.2839898 44,71.5776593 44,100 C44,129.823376 68.1766235,154 98,154 Z" id="Outerer" stroke="#000000" stroke-width="2" sketch:type="MSShapeGroup"></path>
            <path d="M98,145 C122.852814,145 143,124.852814 143,100 C143,75.1471863 122.852814,55 98,55 C96.8324701,55 95.6753252,55.0444631 94.530166,55.1317882 C71.2987094,56.9033248 53,76.3147161 53,100 C53,124.852814 73.1471863,145 98,145 Z" id="Inner" stroke="#9B9B9B" sketch:type="MSShapeGroup"></path>
            <path d="M342,154 C371.823376,154 396,129.823376 396,100 C396,70.1766235 371.823376,46 342,46 C340.598964,46 339.21039,46.0533557 337.836199,46.1581459 C309.958451,48.2839898 288,71.5776593 288,100 C288,129.823376 312.176624,154 342,154 Z" id="Outer2" stroke="#000000" stroke-width="2" sketch:type="MSShapeGroup"></path>
            <path d="M342,145 C366.852814,145 387,124.852814 387,100 C387,75.1471863 366.852814,55 342,55 C340.83247,55 339.675325,55.0444631 338.530166,55.1317882 C315.298709,56.9033248 297,76.3147161 297,100 C297,124.852814 317.147186,145 342,145 Z" id="Inner2" stroke="#9B9B9B" sketch:type="MSShapeGroup"></path>
            <g id="Line-+-Triangle-1" sketch:type="MSLayerGroup" transform="translate(167.000000, 22.000000)" stroke="#000000">
                <path d="M0.0740585327,0.109305777 C0.0740585327,0.109305777 10.360678,10.2332175 25.8207817,16.7097124 C34.0128392,20.1415017 44.5479221,21.9555898 53.8208213,21.9993186 C62.9276922,22.0422644 73.9700145,20.052782 82.1086197,16.7097124 C97.8962397,10.2246808 107.925941,0.109305777 107.925941,0.109305777" id="Path-6-Copy" stroke-width="2" sketch:type="MSShapeGroup" transform="translate(54.000000, 11.054653) scale(1, -1) translate(-54.000000, -11.054653) "></path>
                <polygon id="Triangle-3-Copy-2" fill="#000000" sketch:type="MSShapeGroup" transform="translate(110.000000, 24.500000) rotate(-225.000000) translate(-110.000000, -24.500000) " points="110 20 113 29 107 29 "></polygon>
            </g>
            <g id="Line-+-Triangle-1-Copy" sketch:type="MSLayerGroup" transform="translate(216.500000, 160.500000) scale(-1, -1) translate(-216.500000, -160.500000) translate(158.000000, 145.000000)" stroke="#000000">
                <path d="M0.0740585327,0.109305777 C0.0740585327,0.109305777 10.360678,10.2332175 25.8207817,16.7097124 C34.0128392,20.1415017 44.5479221,21.9555898 53.8208213,21.9993186 C62.9276922,22.0422644 73.9700145,20.052782 82.1086197,16.7097124 C97.8962397,10.2246808 107.925941,0.109305777 107.925941,0.109305777" id="Path-6-Copy" stroke-width="2" sketch:type="MSShapeGroup" transform="translate(54.000000, 11.054653) scale(1, -1) translate(-54.000000, -11.054653) "></path>
                <polygon id="Triangle-3-Copy-3" fill="#000000" sketch:type="MSShapeGroup" transform="translate(111.000000, 25.500000) rotate(137.000000) translate(-111.000000, -25.500000) " points="111 21 114 30 108 30 "></polygon>
            </g>
            <g id="Triangle-1-Copy-+-Line" sketch:type="MSLayerGroup" transform="translate(0.000000, 95.000000)" stroke="#000000">
                <path d="M0.5,4 L28.5,4" id="Line" stroke-width="2" stroke-linecap="square" sketch:type="MSShapeGroup"></path>
                <polygon id="Triangle-3" fill="#000000" sketch:type="MSShapeGroup" transform="translate(35.000000, 4.000000) rotate(-270.000000) translate(-35.000000, -4.000000) " points="35 -1 38 9 32 9 "></polygon>
            </g>
            <g id="Triangle-1-Copy-+-Line-Copy" sketch:type="MSLayerGroup" transform="translate(401.000000, 95.000000)" stroke="#000000">
                <path d="M0.5,4 L30.5,4" id="Line" stroke-width="2" stroke-linecap="square" sketch:type="MSShapeGroup"></path>
                <polygon id="Triangle-3-Copy" fill="#000000" sketch:type="MSShapeGroup" transform="translate(31.000000, 4.000000) rotate(-270.000000) translate(-31.000000, -4.000000) " points="31 -1 34 9 28 9 "></polygon>
            </g>
            <g id="S-+-1" sketch:type="MSLayerGroup" transform="translate(90.000000, 81.000000)" font-family="Open Sans" fill="#2F2F2F">
                <text id="S" sketch:type="MSTextLayer" font-size="24" font-weight="normal">
                    <tspan x="0" y="26">S</tspan>
                </text>
                <text id="1" sketch:type="MSTextLayer" font-size="14" font-weight="bold">
                    <tspan x="14" y="33">1</tspan>
                </text>
            </g>
            <g id="2-+-S-Copy" sketch:type="MSLayerGroup" transform="translate(335.000000, 80.000000)" font-family="Open Sans" fill="#2F2F2F" font-weight="normal">
                <text id="2" sketch:type="MSTextLayer" font-size="14">
                    <tspan x="15" y="34">2</tspan>
                </text>
                <text id="S-Copy" sketch:type="MSTextLayer" font-size="24">
                    <tspan x="0" y="26">S</tspan>
                </text>
            </g>
            <text id="0" sketch:type="MSTextLayer" font-family="Open Sans" font-size="14" font-weight="bold" fill="#2F2F2F">
                <tspan x="217" y="16">0</tspan>
            </text>
            <text id="0-copy" sketch:type="MSTextLayer" font-family="Open Sans" font-size="14" font-weight="bold" fill="#2F2F2F">
                <tspan x="217" y="192">0</tspan>
            </text>
        </g>
    </g>
</svg>