<?xml version="1.0" encoding="UTF-8" standalone="no"?>
<svg width="440px" height="167px" viewBox="0 0 440 167" version="1.1" xmlns="http://www.w3.org/2000/svg" xmlns:xlink="http://www.w3.org/1999/xlink" xmlns:sketch="http://www.bohemiancoding.com/sketch/ns">
    <!-- Generator: Sketch 3.3.2 (12043) - http://www.bohemiancoding.com/sketch -->
    <title>surface1</title>
    <desc>Created with Sketch.</desc>
    <defs></defs>
    <g id="Page-1" stroke="none" stroke-width="1" fill="none" fill-rule="evenodd" sketch:type="MSPage">
        <g id="Artboard" sketch:type="MSArtboardGroup" transform="translate(0.000000, -16.000000)">
            <g id="surface1" sketch:type="MSLayerGroup" transform="translate(1.000000, 16.000000)">
                <path d="M14.3643999,137.183037 L288.756812,58.9151794" id="Shape" stroke="#E6E6E6" stroke-width="0.3985" sketch:type="MSShapeGroup" transform="translate(151.560606, 98.049108) scale(1, -1) translate(-151.560606, -98.049108) "></path>
                <path d="M14.3643999,130.695632 C14.3643999,130.695632 16.3587071,133.44117 17.1133098,134.485811 C17.8813902,135.517061 19.0941428,137.177775 19.8622197,138.18224 C20.6168224,139.186705 21.8430527,140.767061 22.5976554,141.717954 C23.3657323,142.655456 24.5784884,144.128669 25.3465653,144.999203 C26.101168,145.856346 27.3273983,147.18224 28.0954752,147.945632 C28.8500779,148.709027 30.0763081,149.860811 30.8309109,150.503669 C31.5989878,151.146526 32.8117438,152.097419 33.5798207,152.606346 C34.3344234,153.115277 35.5606537,153.825097 36.3152564,154.186705 C37.0833333,154.548313 38.296086,155.017061 39.0641663,155.217954 C39.818769,155.418848 41.0449959,155.619742 41.8130762,155.646526 C42.5676789,155.686705 43.7939057,155.606346 44.5485084,155.472419 C45.3165888,155.338489 46.5293414,154.976885 47.2974183,154.668848 C48.052021,154.360811 49.2782513,153.717954 50.032854,153.235811 C50.8009309,152.753669 52.0271612,151.842954 52.7817639,151.200097 C53.5498408,150.543848 54.7625969,149.365277 55.5306738,148.561705 C56.2852765,147.758134 57.5115068,146.325097 58.2661095,145.374203 C59.0341864,144.423313 60.2469425,142.762599 61.0150194,141.677775 C61.7696221,140.592954 62.9958524,138.731346 63.7639293,137.525991 C64.518532,136.320632 65.7447622,134.284918 66.499365,132.985811 C67.2674419,131.673313 68.4801979,129.503669 69.2482748,128.110811 C70.0028776,126.731346 71.2291078,124.44117 71.9837105,123.008134 C72.7517874,121.561705 73.9780177,119.204562 74.7326204,117.731346 C75.5006973,116.258134 76.71345,113.860811 77.4815303,112.374203 C78.236133,110.887599 79.4623598,108.503669 80.2169626,107.030456 C80.9850429,105.55724 82.1977955,103.200097 82.9658724,101.767061 C83.7204752,100.334027 84.9467054,98.05724 85.7147823,96.6911703 C86.469385,95.3117051 87.6956153,93.155456 88.450218,91.8563463 C89.2182949,90.570632 90.431051,88.5617051 91.1991279,87.3697417 C91.9537306,86.1777748 93.1799609,84.3429543 93.9345636,83.2715257 C94.7026405,82.2000971 95.9288708,80.5795623 96.6834735,79.6420606 C97.4515504,78.7179543 98.6643065,77.3250971 99.4323834,76.5349177 C100.186986,75.7447417 101.413216,74.6063463 102.167819,73.9902766 C102.935896,73.3608114 104.148649,72.4768846 104.916729,72.0215257 C105.671332,71.5661703 106.897558,70.9634891 107.665639,70.68224 C108.420242,70.4009908 109.646468,70.0795623 110.401071,69.9724194 C111.169151,69.8518846 112.381904,69.8117051 113.149981,69.8786686 C113.904584,69.93224 115.130814,70.1733131 115.885417,70.3875988 C116.653494,70.6152766 117.879724,71.1242034 118.634327,71.4992034 C119.402403,71.8875988 120.61516,72.6242034 121.383236,73.1599177 C122.137839,73.695632 123.364069,74.6599177 124.118672,75.3295623 C124.886749,75.9858114 126.099505,77.1643828 126.867582,77.9411703 C127.622185,78.7179543 128.848415,80.070632 129.616492,80.9411703 C130.371095,81.8250971 131.597325,83.3117051 132.351928,84.2625988 C133.120004,85.2268846 134.332757,86.820632 135.100837,87.8250971 C135.85544,88.8429543 137.081667,90.5036686 137.83627,91.5483131 C138.60435,92.5929543 139.817103,94.280456 140.58518,95.3384891 C141.339782,96.3831337 142.566013,98.0840274 143.334089,99.1152766 C144.088692,100.146526 145.314922,101.80724 146.069525,102.798313 C146.837602,103.789383 148.050358,105.356346 148.818435,106.293848 C149.573038,107.231346 150.799268,108.69117 151.553871,109.534918 C152.321948,110.392061 153.548178,111.69117 154.302781,112.44117 C155.070858,113.19117 156.283614,114.302775 157.051691,114.93224 C157.806293,115.561705 159.032524,116.472419 159.787126,116.967954 C160.555203,117.450097 161.767956,118.133134 162.536036,118.467954 C163.290639,118.81617 164.516866,119.244742 165.284946,119.418848 C166.039549,119.606346 167.265776,119.753669 168.020378,119.767061 C168.788459,119.780456 170.001211,119.659918 170.769288,119.499203 C171.523891,119.338489 172.750121,118.950097 173.504724,118.615277 C174.272801,118.280456 175.499031,117.597419 176.253634,117.088489 C177.021711,116.592954 178.234467,115.642061 179.002544,114.972419 C179.757146,114.289383 180.983377,113.084027 181.737979,112.253669 C182.506056,111.423313 183.718812,109.963489 184.486889,108.999203 C185.241492,108.021526 186.467722,106.334027 187.235799,105.222419 C187.990402,104.124203 189.216632,102.235811 189.971235,101.017061 C190.739312,99.7983131 191.952064,97.7358114 192.720145,96.4233131 C193.474747,95.1108114 194.700974,92.9143828 195.455577,91.5215257 C196.223657,90.1286686 197.449884,87.8250971 198.204487,86.3786686 C198.972567,84.93224 200.18532,82.5617051 200.953397,81.0884891 C201.707999,79.6152766 202.93423,77.2179543 203.688832,75.7313463 C204.456909,74.2447417 205.669665,71.8608114 206.437742,70.3875988 C207.192345,68.9277748 208.418575,66.5840274 209.186652,65.1509908 C209.941255,63.7313463 211.167485,61.4679543 211.922088,60.1018846 C212.690165,58.7358114 213.902921,56.5929543 214.670998,55.320632 C215.4256,54.0349177 216.651831,52.0527748 217.406433,50.8742034 C218.17451,49.695632 219.400741,47.9009908 220.155343,46.8429543 C220.92342,45.7983131 222.136173,44.2045623 222.90425,43.293848 C223.658852,42.3697417 224.885083,41.0170606 225.639685,40.2536686 C226.407762,39.4902766 227.620518,38.3786686 228.388595,37.7759908 C229.143198,37.1733131 230.369428,36.3429543 231.137505,35.9009908 C231.892108,35.4724194 233.118338,34.9099177 233.872941,34.655456 C234.641018,34.3875988 235.853774,34.1063463 236.621851,34.0259908 C237.376453,33.93224 238.602684,33.93224 239.357286,34.0125988 C240.125363,34.1063463 241.338116,34.3742034 242.106196,34.6286686 C242.874273,34.8697417 244.087026,35.405456 244.855106,35.80724 C245.609709,36.2090274 246.835936,36.9858114 247.590538,37.5483131 C248.358619,38.0974194 249.571371,39.0884891 250.339448,39.7715257 C251.094051,40.4545623 252.320281,41.6599177 253.074884,42.4500971 C253.842961,43.2402766 255.069191,44.6063463 255.823794,45.5036686 C256.591871,46.3875988 257.804627,47.9009908 258.572704,48.8652766 C259.327307,49.8295623 260.553537,51.4367051 261.30814,52.4545623 C262.076216,53.4590274 263.288973,55.1331337 264.057049,56.1777748 C264.811652,57.2224194 266.037882,58.9233131 266.805959,59.9813463 C267.560562,61.0259908 268.786792,62.7134891 269.541395,63.7447417 C270.309472,64.7759908 271.522225,66.4233131 272.290305,67.4143828 C273.044908,68.3920606 274.271134,69.945632 275.025737,70.8831337 C275.793817,71.80724 277.020044,73.2402766 277.774647,74.070632 C278.542727,74.9143828 279.75548,76.1867051 280.523557,76.9233131 C281.27816,77.6599177 282.50439,78.7447417 283.258993,79.3608114 C284.027069,79.9634891 285.239826,80.8474194 286.007902,81.3161703 C286.762505,81.7849177 288.756812,82.7492034 288.756812,82.7492034" id="Shape" stroke="#9B9B9B" sketch:type="MSShapeGroup" transform="translate(151.560606, 94.805406) scale(1, -1) translate(-151.560606, -94.805406) "></path>
                <path d="M41.988251,125.986608 L316.367186,47.7321429" id="Shape" stroke="#E6E6E6" stroke-width="0.3985" sketch:type="MSShapeGroup" transform="translate(179.177718, 86.859375) scale(1, -1) translate(-179.177718, -86.859375) "></path>
                <path d="M41.988251,120.592132 C41.988251,120.592132 43.969084,123.351062 44.7371609,124.275168 C45.4917636,125.185882 46.7179938,126.57874 47.4725966,127.208205 C48.2406734,127.824274 49.4669037,128.574274 50.2215064,128.775168 C50.9895833,128.962666 52.202336,128.895703 52.9704163,128.587666 C53.725019,128.279633 54.9512459,127.342132 55.7058486,126.551952 C56.4739289,125.761776 57.6866816,124.060882 58.4547619,122.868919 C59.2093646,121.690348 60.4355914,119.440348 61.2036718,118.034095 C61.9582745,116.627846 63.1845013,114.150168 63.939104,112.70374 C64.7071844,111.270703 65.919937,108.91356 66.6880139,107.654633 C67.4426166,106.382311 68.6688469,104.493919 69.4234496,103.583205 C70.1915265,102.659095 71.4177568,101.493919 72.1723595,101.03856 C72.9404364,100.583205 74.1531925,100.275168 74.9212694,100.32874 C75.6758721,100.382311 76.9021024,100.904633 77.6567051,101.41356 C78.424782,101.935882 79.6375381,103.168025 80.405615,104.011776 C81.1602177,104.868919 82.3864479,106.543025 83.1545248,107.54749 C83.9091276,108.565348 85.1353578,110.333205 85.8899605,111.29749 C86.6580374,112.261776 87.8707901,113.78856 88.6388704,114.511776 C89.3934731,115.234989 90.6197,116.199274 91.3743027,116.520703 C92.142383,116.855524 93.3686098,117.029633 94.1232126,116.868919 C94.8912929,116.708205 96.1040455,116.011776 96.8721224,115.355524 C97.6267252,114.699274 98.8529554,113.199274 99.6075581,112.114454 C100.375635,111.029633 101.588391,108.900168 102.356468,107.534095 C103.111071,106.181417 104.337301,103.730524 105.105378,102.270703 C105.859981,100.824274 107.086211,98.4001681 107.840814,97.0608824 C108.608891,95.7349887 109.821647,93.6858824 110.589723,92.6546333 C111.344326,91.6099887 112.570556,90.2171315 113.325159,89.6278458 C114.093236,89.0385601 115.319466,88.4626664 116.074069,88.368919 C116.842146,88.2885601 118.054899,88.5832047 118.822979,88.9715967 C119.577582,89.3599887 120.803808,90.4180253 121.558411,91.1814173 C122.326492,91.9582047 123.539244,93.5251681 124.307321,94.5162378 C125.061924,95.507311 126.288154,97.2885601 127.056231,98.2796333 C127.810834,99.284095 129.037064,100.918025 129.791667,101.721597 C130.559744,102.53856 131.7725,103.690348 132.540577,104.132311 C133.295179,104.587666 134.52141,105.016238 135.276012,104.989454 C136.044089,104.976062 137.256845,104.534095 138.024922,104.011776 C138.779525,103.489454 140.005755,102.20374 140.773832,101.239454 C141.528435,100.261776 142.754665,98.2930253 143.509268,96.9805235 C144.277345,95.6814173 145.490097,93.2974904 146.258178,91.8510618 C147.01278,90.4046333 148.239007,87.9403475 148.99361,86.5474904 C149.76169,85.1546333 150.987917,82.9715967 151.74252,81.8332047 C152.5106,80.6948093 153.723353,79.0876664 154.49143,78.3644538 C155.246032,77.6278458 156.472263,76.8108824 157.226865,76.5832047 C157.994942,76.3421315 159.207698,76.395703 159.975775,76.6501681 C160.730378,76.9180253 161.956608,77.7751681 162.724685,78.4448093 C163.479288,79.1144538 164.705518,80.5742744 165.460121,81.5251681 C166.228198,82.4626664 167.440954,84.2171315 168.209031,85.2349887 C168.963633,86.2528458 170.189864,87.9671315 170.944466,88.8510618 C171.712543,89.7349887 172.938774,91.0474904 173.693376,91.6233807 C174.461453,92.1992744 175.674206,92.8421315 176.442286,92.9626664 C177.196889,93.0832047 178.423116,92.895703 179.177718,92.520703 C179.945799,92.145703 181.158551,91.0876664 181.926628,90.2305235 C182.681231,89.3867761 183.907461,87.5787395 184.675538,86.3599887 C185.430141,85.1412378 186.656371,82.8376664 187.410974,81.4046333 C188.179051,79.9849887 189.391807,77.507311 190.159884,76.0742744 C190.914486,74.6412378 192.140717,72.3376664 192.895319,71.118919 C193.663396,69.8867761 194.889627,68.0921315 195.644229,67.2349887 C196.412306,66.3778458 197.625062,65.3198093 198.393139,64.9314173 C199.147742,64.5564173 200.373972,64.3555235 201.128575,64.4760618 C201.896652,64.5965967 203.109404,65.2394538 203.877485,65.8153475 C204.632087,66.3778458 205.858314,67.6903475 206.626395,68.5742744 C207.380997,69.4582047 208.607224,71.1724904 209.361827,72.1903475 C210.129907,73.2082047 211.34266,74.9626664 212.110737,75.9001681 C212.865339,76.8510618 214.09157,78.3108824 214.846172,78.993919 C215.614249,79.6635601 216.84048,80.520703 217.595082,80.7885601 C218.363159,81.0564173 219.575915,81.1099887 220.343992,80.882311 C221.098595,80.6412378 222.324825,79.8376664 223.079428,79.1010618 C223.847505,78.3778458 225.060257,76.784095 225.828338,75.645703 C226.582941,74.507311 227.809167,72.3242744 228.577248,70.9314173 C229.33185,69.5519521 230.558077,67.0876664 231.31268,65.6278458 C232.08076,64.1814173 233.293513,61.7974904 234.06159,60.4983807 C234.816193,59.1858824 236.042423,57.2171315 236.797026,56.2394538 C237.565102,55.2617761 238.777859,53.9760618 239.545935,53.4537395 C240.314012,52.9180253 241.526768,52.4760618 242.294845,52.4626664 C243.049448,52.4358824 244.275678,52.8510618 245.030281,53.2930253 C245.798358,53.7483807 247.011114,54.9001681 247.779191,55.7037395 C248.533794,56.520703 249.760024,58.1412378 250.514627,59.145703 C251.282703,60.1367761 252.508934,61.9180253 253.263536,62.909095 C254.031613,63.9001681 255.244366,65.4805235 256.012446,66.243919 C256.767049,67.020703 257.993276,68.0787395 258.747879,68.4671315 C259.515959,68.8555235 260.728712,69.1635601 261.496788,69.0698093 C262.251391,68.9894538 263.477621,68.4269521 264.245698,67.8376664 C265.000301,67.2483807 266.226531,65.8555235 266.981134,64.8242744 C267.749211,63.7930253 268.961967,61.743919 269.730044,60.4180253 C270.484647,59.0787395 271.710877,56.6546333 272.46548,55.2082047 C273.233557,53.7483807 274.459787,51.3108824 275.21439,49.9448093 C275.982466,48.5787395 277.195223,46.4492744 277.963299,45.3644538 C278.717902,44.2796333 279.944132,42.7662378 280.698735,42.1099887 C281.466812,41.4403475 282.679565,40.743919 283.447645,40.5832047 C284.202248,40.4224904 285.428475,40.5965967 286.196555,40.9180253 C286.951158,41.2394538 288.177384,42.1903475 288.931987,42.9135601 C289.700067,43.6367761 290.91282,45.1635601 291.680897,46.1278458 C292.4355,47.0921315 293.66173,48.8599887 294.416333,49.8778458 C295.18441,50.882311 296.41064,52.5564173 297.165243,53.4135601 C297.933319,54.270703 299.146076,55.5028458 299.914152,56.0117761 C300.668755,56.534095 301.894985,57.0698093 302.649588,57.1233807 C303.417665,57.1769521 304.630421,56.868919 305.398498,56.4135601 C306.153101,55.9715967 307.379331,54.8064173 308.147408,53.882311 C308.902011,52.9715967 310.128241,51.0832047 310.882844,49.8242744 C311.650921,48.5653475 312.863673,46.2082047 313.631754,44.7751681 C314.386356,43.3287395 316.367186,39.4448093 316.367186,39.4448093" id="Shape" stroke="#9B9B9B" sketch:type="MSShapeGroup" transform="translate(179.177718, 84.162137) scale(1, -1) translate(-179.177718, -84.162137) "></path>
                <path d="M69.612102,114.803571 L343.991037,36.5357143" id="Shape" stroke="#E6E6E6" stroke-width="0.3985" sketch:type="MSShapeGroup" transform="translate(206.801569, 75.669643) scale(1, -1) translate(-206.801569, -75.669643) "></path>
                <path d="M69.612102,115.473903 C69.612102,115.473903 71.5929316,118.232834 72.3610119,118.929262 C73.1156146,119.612295 74.3418414,120.442654 75.0964441,120.469438 C75.8645245,120.482834 77.0772771,119.813189 77.845354,119.049797 C78.5999567,118.286405 79.826187,116.250691 80.5942639,114.951581 C81.3488666,113.652475 82.5750969,111.027475 83.3296996,109.688189 C84.0977765,108.348903 85.3105326,106.152475 86.0786095,105.268548 C86.8332122,104.384618 88.0594425,103.447119 88.8140452,103.326581 C89.5821221,103.206046 90.8083524,103.795332 91.5629551,104.39801 C92.331032,105.000691 93.5437881,106.688189 94.311865,107.639083 C95.0664677,108.589976 96.2926979,110.464976 97.0473007,111.24176 C97.8153776,112.018548 99.0281302,113.063189 99.7962105,113.223903 C100.550813,113.371226 101.77704,112.969438 102.54512,112.326581 C103.299723,111.683724 104.52595,109.848903 105.280553,108.61676 C106.048633,107.384618 107.261386,104.786405 108.029463,103.40694 C108.784065,102.040867 110.010296,99.6971193 110.764898,98.7060461 C111.532975,97.7149764 112.759205,96.5230096 113.513808,96.2685479 C114.281885,96.0006907 115.494641,96.3489033 116.262718,96.8444381 C117.017321,97.3399764 118.243551,98.8935479 118.998154,99.8176541 C119.766231,100.755152 120.978987,102.670332 121.747064,103.514083 C122.501666,104.344438 123.727897,105.603368 124.495973,105.884618 C125.250576,106.165867 126.476806,106.03194 127.231409,105.52301 C127.999486,105.014083 129.212239,103.393548 129.980319,102.228368 C130.734922,101.076581 131.961149,98.5453319 132.715751,97.1524747 C133.483832,95.7596176 134.696584,93.3087239 135.464661,92.2105113 C136.219264,91.1256907 137.445494,89.6926541 138.213571,89.2908667 C138.968174,88.9024747 140.194404,88.9828336 140.949007,89.3578336 C141.717084,89.7328336 142.92984,91.1390827 143.697917,92.0230096 C144.452519,92.9069399 145.67875,94.8489033 146.433352,95.7328336 C147.201429,96.6301524 148.42766,98.063189 149.182262,98.4649764 C149.950339,98.8667604 151.163095,99.0006907 151.931172,98.6256907 C152.685775,98.2506907 153.912005,96.8712256 154.666608,95.799797 C155.434685,94.7283684 156.647437,92.2774747 157.415518,90.8980096 C158.17012,89.5051524 159.396347,86.9605113 160.164428,85.7819399 C160.91903,84.6033684 162.145257,82.9426541 162.89986,82.4203319 C163.66794,81.8846176 164.880693,81.6971193 165.64877,81.951581 C166.403372,82.2060461 167.629603,83.424797 168.384205,84.2551524 C169.152282,85.0855113 170.378513,87.0006907 171.133115,87.938189 C171.901192,88.8622953 173.113948,90.4560461 173.882025,90.9649764 C174.636628,91.4872953 175.862858,91.8756907 176.617461,91.6346176 C177.385538,91.4069399 178.598294,90.2685479 179.366371,89.2908667 C180.120973,88.326581 181.347204,86.0096176 182.115281,84.6301524 C182.869883,83.2640827 184.096114,80.6658667 184.850716,79.4069399 C185.618793,78.161405 186.831546,76.286405 187.599626,75.6301524 C188.354229,74.9605113 189.580456,74.5185479 190.335058,74.6390827 C191.103139,74.7596176 192.329366,75.7774747 193.083968,76.5408667 C193.852049,77.2908667 195.064801,79.1658667 195.832878,80.1167604 C196.587481,81.0676541 197.813711,82.7819399 198.568314,83.3980096 C199.336391,84.0140827 200.549147,84.6569399 201.317224,84.563189 C202.071827,84.4694381 203.298057,83.5855113 204.066134,82.7149764 C204.820736,81.8578336 206.046967,79.688189 206.801569,78.3489033 C207.569646,77.0096176 208.782402,74.3846176 209.550479,73.0855113 C210.305082,71.7730096 211.531312,69.7105113 212.285915,68.9203319 C213.053992,68.1435479 214.280222,67.4203319 215.034825,67.4069399 C215.802902,67.4069399 217.015654,68.1837239 217.783735,68.8667604 C218.538337,69.536405 219.764564,71.3310461 220.519167,72.2819399 C221.287247,73.2328336 222.5,75.0542621 223.268077,75.7640827 C224.02268,76.4739033 225.24891,77.3444381 226.016987,77.3846176 C226.771589,77.424797 227.99782,76.8087239 228.752422,76.0721193 C229.520499,75.3221193 230.733255,73.326581 231.501332,72.0408667 C232.255935,70.7551524 233.482165,68.1301524 234.236768,66.7774747 C235.004845,65.424797 236.217598,63.201581 236.985678,62.3042621 C237.753755,61.3935479 238.966507,60.4158667 239.734588,60.2685479 C240.489191,60.1212256 241.715417,60.6703319 242.47002,61.2596176 C243.2381,61.8355113 244.450853,63.5096176 245.21893,64.4471193 C245.973533,65.3980096 247.199763,67.286405 247.954366,68.076581 C248.722443,68.8533684 249.948673,69.951581 250.703276,70.1256907 C251.471352,70.299797 252.684109,69.951581 253.452185,69.3355113 C254.206788,68.7194381 255.433018,66.924797 256.187621,65.6926541 C256.955698,64.4739033 258.168454,61.8890827 258.936531,60.5096176 C259.691134,59.1301524 260.917364,56.7596176 261.685441,55.7551524 C262.440044,54.7506907 263.666274,53.5051524 264.420877,53.2239033 C265.188953,52.9426541 266.401706,53.2372953 267.169786,53.7060461 C267.924389,54.188189 269.150616,55.7149764 269.905219,56.6390827 C270.673299,57.549797 271.899526,59.4783684 272.654129,60.3355113 C273.422209,61.1792621 274.634962,62.4783684 275.403038,62.7730096 C276.157641,63.0810461 277.383871,62.9872953 278.138474,62.5051524 C278.906551,62.0230096 280.119307,60.4560461 280.887384,59.3042621 C281.641987,58.1658667 282.868217,55.6480096 283.636294,54.2551524 C284.390897,52.8622953 285.617127,50.3846176 286.37173,49.2730096 C287.139807,48.174797 288.352563,46.688189 289.12064,46.2730096 C289.875242,45.8578336 291.101473,45.8846176 291.856075,46.2462256 C292.624152,46.5944381 293.850382,47.9739033 294.604985,48.8444381 C295.373062,49.7149764 296.585815,51.6569399 297.353895,52.5542621 C298.108498,53.451581 299.334725,54.924797 300.089327,55.3399764 C300.857408,55.7685479 302.07016,55.9426541 302.838237,55.5944381 C303.59284,55.2596176 304.81907,53.9069399 305.587147,52.8489033 C306.34175,51.8042621 307.56798,49.3801524 308.322583,48.0006907 C309.09066,46.6078336 310.303416,44.049797 311.071493,42.8578336 C311.826095,41.6658667 313.052326,39.9649764 313.806928,39.4158667 C314.575005,38.8533684 315.801235,38.6256907 316.555838,38.8533684 C317.323915,39.0810461 318.536671,40.2730096 319.304748,41.0899764 C320.059351,41.9069399 321.285581,43.8087239 322.040184,44.7462256 C322.808261,45.6837239 324.021013,47.2908667 324.789094,47.826581 C325.543696,48.3622953 326.769923,48.8042621 327.538004,48.5899764 C328.292606,48.3890827 329.518833,47.2908667 330.273436,46.3399764 C331.041516,45.3890827 332.254269,43.0989033 333.022346,41.7328336 C333.776948,40.3667604 335.003179,37.7551524 335.757781,36.4962256 C336.525858,35.2372953 337.752089,33.3221193 338.506691,32.6390827 C339.274768,31.9560461 340.487524,31.4471193 341.255601,31.5542621 C342.010204,31.6480096 343.991037,33.3756907 343.991037,33.3756907" id="Shape" stroke="#9B9B9B" sketch:type="MSShapeGroup" transform="translate(206.801569, 76.004809) scale(1, -1) translate(-206.801569, -76.004809) "></path>
                <path d="M97.2359496,103.607143 L371.614884,25.3526777" id="Shape" stroke="#E6E6E6" stroke-width="0.3985" sketch:type="MSShapeGroup" transform="translate(234.425417, 64.479910) scale(1, -1) translate(-234.425417, -64.479910) "></path>
                <path d="M97.2359496,102.364472 C97.2359496,102.364472 99.2167826,105.096614 99.9848595,105.498398 C100.739462,105.900186 101.965692,105.886794 102.720295,105.297508 C103.488372,104.708222 104.701128,102.538578 105.469205,101.266256 C106.223808,100.007329 107.450038,97.2350064 108.204641,96.1769699 C108.972718,95.1323287 110.198948,93.819827 110.953551,93.6992922 C111.721628,93.5653653 112.93438,94.543043 113.702461,95.2662556 C114.457063,95.9894716 115.68329,98.1189367 116.437893,98.8823287 C117.205973,99.6591127 118.418726,100.824292 119.186803,100.8109 C119.941405,100.784113 121.167636,99.7126842 121.935713,98.7350064 C122.690315,97.7573287 123.916546,95.0385779 124.671148,93.7528636 C125.439225,92.4671493 126.651981,90.1367939 127.420058,89.4537573 C128.174661,88.7707207 129.400891,88.5028636 130.155494,88.8109002 C130.923571,89.1323287 132.136327,90.8600064 132.904404,91.7305413 C133.659006,92.5876842 134.885237,94.543043 135.653314,95.0385779 C136.407916,95.5207207 137.634147,95.7483984 138.388749,95.2662556 C139.156826,94.7841127 140.369579,92.7751859 141.137659,91.543043 C141.892262,90.3109002 143.118489,87.4983984 143.873091,86.3867939 C144.641172,85.2617939 145.867399,83.7350064 146.622001,83.5073287 C147.390082,83.2662556 148.602834,84.029651 149.370911,84.6992922 C150.125514,85.3555413 151.351744,87.4582224 152.106347,88.2751859 C152.874424,89.0787573 154.08718,90.444827 154.855257,90.5251859 C155.609859,90.6055413 156.83609,89.7751859 157.604167,88.8644716 C158.358769,87.9671493 159.585,85.3421493 160.339602,84.043043 C161.107679,82.7439367 162.320435,80.279651 163.088512,79.5028636 C163.843115,78.7126842 165.069345,78.2037573 165.823948,78.431435 C166.592025,78.6457207 167.818255,80.2394716 168.572858,81.0832224 C169.340935,81.9269699 170.553687,83.9626842 171.321768,84.5385779 C172.07637,85.1010796 173.302597,85.556435 174.0572,85.181435 C174.82528,84.806435 176.038033,82.9850064 176.80611,81.806435 C177.560713,80.6144716 178.786943,77.7751859 179.55502,76.6100064 C180.309622,75.444827 181.535853,73.7037573 182.290455,73.3555413 C183.058532,73.0207207 184.271288,73.556435 185.039365,74.1591127 C185.793968,74.7483984 187.020198,76.8109002 187.774801,77.6412556 C188.542878,78.4850064 189.769108,80.0117939 190.523711,80.1992922 C191.291788,80.3867939 192.504544,79.7841127 193.272621,78.9671493 C194.027223,78.1635779 195.253454,75.6457207 196.008056,74.3466144 C196.776133,73.0475082 197.988886,70.4626842 198.756966,69.5921493 C199.511569,68.7216144 200.737796,67.9716144 201.505876,68.0921493 C202.260479,68.2126842 203.486706,69.6323287 204.241308,70.4492922 C205.009389,71.279651 206.222141,73.3689367 206.990218,74.0117939 C207.744821,74.6412556 208.971051,75.3242922 209.725654,75.056435 C210.493731,74.7751859 211.719961,73.181435 212.474564,72.043043 C213.242641,70.904651 214.455397,68.0787573 215.223474,66.8600064 C215.978077,65.6412556 217.204307,63.7126842 217.95891,63.2573287 C218.726986,62.8153653 219.939743,63.1233984 220.707819,63.6457207 C221.462422,64.154651 222.688649,66.1501859 223.456729,67.0073287 C224.211332,67.8644716 225.437559,69.5519699 226.192162,69.8332224 C226.960242,70.1144716 228.172995,69.7528636 228.941071,69.043043 C229.695674,68.319827 230.921904,65.9359002 231.676507,64.6367939 C232.444584,63.3510796 233.670814,60.6591127 234.425417,59.7082224 C235.193494,58.7573287 236.40625,57.7662556 237.174327,57.793043 C237.92893,57.806435 239.15516,59.0519699 239.909763,59.8421493 C240.677839,60.6189367 241.890596,62.7483984 242.658672,63.444827 C243.413275,64.1412556 244.639505,65.0519699 245.394108,64.8778636 C246.162185,64.7171493 247.388415,63.3242922 248.143018,62.2528636 C248.911095,61.168043 250.123848,58.3823287 250.891928,57.1233984 C251.646531,55.8778636 252.872757,53.7617939 253.62736,53.2126842 C254.395441,52.6635779 255.608193,52.7305413 256.37627,53.1591127 C257.130873,53.6010796 258.357103,55.5028636 259.12518,56.3600064 C259.879783,57.2305413 261.106013,59.0385779 261.860616,59.4135779 C262.628693,59.7885779 263.841449,59.681435 264.609526,59.0653653 C265.364128,58.4359002 266.590359,56.1992922 267.344961,54.9269699 C268.113038,53.654651 269.339268,50.8957207 270.093871,49.8778636 C270.861948,48.8466144 272.074704,47.6278636 272.842781,47.5341127 C273.597384,47.4403653 274.823614,48.4983984 275.578217,49.2350064 C276.346294,49.9716144 277.559046,52.1144716 278.327127,52.8644716 C279.081729,53.6144716 280.307956,54.7260796 281.076036,54.6591127 C281.830639,54.6055413 283.056866,53.4403653 283.811469,52.4359002 C284.579549,51.431435 285.792302,48.6859002 286.560379,47.4135779 C287.314981,46.1278636 288.541212,43.8510796 289.295814,43.2082224 C290.063891,42.5519699 291.290121,42.3778636 292.044724,42.7260796 C292.812801,43.0742922 294.025557,44.8555413 294.793634,45.7126842 C295.548237,46.5832224 296.774467,48.5117939 297.52907,48.9671493 C298.297147,49.4359002 299.509903,49.556435 300.27798,49.0341127 C301.032582,48.5251859 302.258813,46.4492922 303.02689,45.2037573 C303.781492,43.9582224 305.007723,41.1591127 305.762325,40.0609002 C306.530402,38.9760796 307.743155,37.529651 308.511235,37.3287573 C309.265838,37.1278636 310.492065,37.9716144 311.246667,38.654651 C312.014748,39.3376842 313.240975,41.4671493 313.995577,42.2573287 C314.763658,43.0475082 315.97641,44.3466144 316.744487,44.4001859 C317.49909,44.4403653 318.72532,43.5162556 319.479923,42.5787573 C320.248,41.654651 321.460756,39.0028636 322.228833,37.7037573 C322.983435,36.404651 324.209666,33.9805413 324.977743,33.2305413 C325.732345,32.4939367 326.958576,32.0653653 327.713178,32.319827 C328.481255,32.5742922 329.694011,34.2216144 330.462088,35.0787573 C331.216691,35.9359002 332.442921,37.944827 333.197524,38.4805413 C333.965601,39.029651 335.191831,39.3912556 335.946434,38.9760796 C336.714511,38.5609002 337.927263,36.6725082 338.695344,35.4671493 C339.449946,34.2617939 340.676173,31.4359002 341.430776,30.2841127 C342.198856,29.1323287 343.411609,27.4716144 344.179686,27.1635779 C344.934288,26.8689367 346.160519,27.4850064 346.928596,28.1010796 C347.683198,28.7305413 348.909429,30.806435 349.664031,31.6367939 C350.432108,32.4671493 351.644864,33.9403653 352.412941,34.0876842 C353.167544,34.2350064 354.393774,33.5519699 355.148377,32.694827 C355.916454,31.8510796 357.12921,29.306435 357.897287,27.9939367 C358.65189,26.694827 359.87812,24.1501859 360.646197,23.306435 C361.400799,22.4760796 362.62703,21.806435 363.381632,21.9671493 C364.149709,22.1278636 365.362462,23.6144716 366.130542,24.444827 C366.885145,25.2751859 368.111372,27.3510796 368.865975,27.9671493 C369.634055,28.569827 371.614884,28.8644716 371.614884,28.8644716" id="Shape" stroke="#9B9B9B" sketch:type="MSShapeGroup" transform="translate(234.425417, 63.858575) scale(1, -1) translate(-234.425417, -63.858575) "></path>
                <path d="M124.859801,92.4241063 L399.238735,14.1562491" id="Shape" stroke="#E6E6E6" stroke-width="0.3985" sketch:type="MSShapeGroup" transform="translate(262.049268, 53.290178) scale(1, -1) translate(-262.049268, -53.290178) "></path>
                <path d="M124.859801,92.3230904 C124.859801,92.3230904 126.84063,94.9346984 127.595233,95.0418413 C128.363313,95.1489841 129.576066,94.0507681 130.344143,93.0864824 C131.098746,92.1088047 132.324976,89.0552333 133.093053,88.0105887 C133.847655,86.9659476 135.073886,85.5730904 135.828488,85.5596984 C136.596565,85.5596984 137.809321,87.2204127 138.577398,87.9704127 C139.332001,88.7204127 140.558231,90.756127 141.312834,90.9570173 C142.080911,91.171303 143.307141,90.394519 144.061744,89.4971967 C144.829821,88.5864824 146.042577,85.5730904 146.810654,84.4748744 C147.565256,83.3766618 148.791487,81.7025556 149.546089,81.5820173 C150.314166,81.4614824 151.526919,82.894519 152.294999,83.631127 C153.049602,84.3543396 154.275829,86.5239841 155.043909,86.8320173 C155.798512,87.1400538 157.024739,86.6846984 157.779341,85.8677316 C158.547422,85.0507681 159.760174,82.1177316 160.528251,80.9659476 C161.282854,79.8275556 162.509084,77.8855887 163.263687,77.644519 C164.031764,77.4168413 165.257994,78.5954127 166.012597,79.2918413 C166.780674,79.9882698 167.99343,82.2650538 168.761507,82.6668413 C169.516109,83.0686253 170.74234,82.921303 171.496942,82.1980904 C172.265019,81.4882698 173.477775,78.6489841 174.245852,77.4838047 C175.000455,76.3052333 176.226685,74.1088047 176.994762,73.7739841 C177.749365,73.4257681 178.975595,74.3364824 179.730198,74.9793396 C180.498275,75.6355887 181.711027,77.9659476 182.479108,78.4480904 C183.233711,78.9436253 184.459937,79.1043396 185.21454,78.4882698 C185.98262,77.8721967 187.208847,75.1802333 187.96345,74.0016618 C188.73153,72.8096984 189.944283,70.3989841 190.71236,69.9436253 C191.466963,69.4748744 192.693193,70.1043396 193.447796,70.6936253 C194.215872,71.282911 195.428629,73.6400538 196.196705,74.2025556 C196.951308,74.7650538 198.177538,75.2471967 198.945615,74.7382698 C199.700218,74.2293396 200.926448,71.7114824 201.681051,70.519519 C202.449128,69.3409476 203.661884,66.7293396 204.429961,66.1534458 C205.184564,65.5909476 206.410794,65.8989841 207.165397,66.4346984 C207.933473,66.9570173 209.159704,69.3007681 209.914306,69.9302333 C210.682383,70.546303 211.895136,71.3230904 212.663216,70.921303 C213.417819,70.532911 214.644046,68.2293396 215.398649,67.0507681 C216.166729,65.8721967 217.379482,63.0998744 218.147558,62.4302333 C218.902161,61.7605887 220.128391,61.7605887 220.896468,62.2025556 C221.651071,62.644519 222.877301,64.9480904 223.631904,65.6177316 C224.399981,66.3007681 225.612737,67.3588047 226.380814,67.0775556 C227.135417,66.782911 228.361647,64.7204127 229.11625,63.5552333 C229.884327,62.4034458 231.097079,59.5105887 231.86516,58.7471967 C232.633236,57.9704127 233.845989,57.6489841 234.614069,58.0105887 C235.368672,58.3588047 236.594899,60.5820173 237.349502,61.2918413 C238.117582,62.0150538 239.330335,63.3409476 240.098412,63.1668413 C240.853014,62.9927316 242.079245,61.1846984 242.833847,60.0596984 C243.601924,58.9480904 244.828154,55.9614824 245.582757,55.0909476 C246.350834,54.2338047 247.56359,53.6043396 248.331667,53.8588047 C249.08627,54.1132698 250.3125,56.2159476 251.067103,56.9525556 C251.83518,57.7025556 253.047936,59.256127 253.816013,59.2025556 C254.570615,59.1489841 255.796846,57.6088047 256.564922,56.5507681 C257.319525,55.4793396 258.545755,52.4391601 259.300358,51.4882698 C260.068435,50.5507681 261.281188,49.5998744 262.049268,49.7605887 C262.803871,49.907911 264.030098,51.8498744 264.7847,52.6132698 C265.552781,53.3632698 266.779007,55.144519 267.53361,55.1980904 C268.301691,55.2516618 269.514443,54.006127 270.28252,53.0016618 C271.037123,51.9971967 272.263353,48.9302333 273.017956,47.9257681 C273.786033,46.907911 274.998789,45.6489841 275.766866,45.7025556 C276.521468,45.7427316 277.747699,47.5105887 278.515776,48.2605887 C279.270378,49.0105887 280.496609,50.9659476 281.251211,51.1266618 C282.019288,51.3007681 283.232044,50.3632698 284.000121,49.4257681 C284.754724,48.4882698 285.980954,45.4480904 286.735557,44.3766618 C287.503634,43.3052333 288.729864,41.7516618 289.484467,41.6980904 C290.252544,41.631127 291.465296,43.171303 292.233377,43.907911 C292.987979,44.657911 294.214206,46.7605887 294.968809,47.0284458 C295.736889,47.296303 296.949642,46.6802333 297.717719,45.8230904 C298.472321,44.9659476 299.698552,41.9793396 300.466629,40.8677316 C301.221231,39.7427316 302.447462,37.907911 303.202064,37.7338047 C303.970141,37.5596984 305.182897,38.8588047 305.950974,39.5686253 C306.705577,40.2918413 307.931807,42.5150538 308.68641,42.8766618 C309.454487,43.2382698 310.680717,42.9436253 311.43532,42.1802333 C312.203397,41.4168413 313.416153,38.5239841 314.18423,37.3721967 C314.938832,36.2070173 316.165063,34.1177316 316.919665,33.8364824 C317.687742,33.5418413 318.900495,34.5730904 319.668575,35.256127 C320.423178,35.9257681 321.649405,38.2293396 322.417485,38.6846984 C323.172088,39.1266618 324.398315,39.1534458 325.152917,38.4838047 C325.920998,37.8275556 327.13375,35.0686253 327.901827,33.8766618 C328.65643,32.6980904 329.88266,30.381127 330.637263,29.9793396 C331.40534,29.5641601 332.63157,30.3275556 333.386173,30.9436253 C334.15425,31.5730904 335.367006,33.9168413 336.135083,34.4525556 C336.889685,34.9748744 338.115916,35.3096984 338.870518,34.7471967 C339.638595,34.1846984 340.851351,31.5998744 341.619428,30.407911 C342.374031,29.2159476 343.600261,26.6980904 344.354864,26.1757681 C345.122941,25.6534458 346.349171,26.1221967 347.103774,26.671303 C347.871851,27.2338047 349.084603,29.5909476 349.852684,30.1802333 C350.607286,30.782911 351.833513,31.4257681 352.588116,30.9704127 C353.356196,30.5150538 354.568949,28.1177316 355.337026,26.9257681 C356.091629,25.7471967 357.317859,23.0418413 358.085936,22.4257681 C358.840538,21.796303 360.066769,21.9436253 360.821371,22.4257681 C361.589448,22.907911 362.802204,25.2382698 363.570281,25.894519 C364.324884,26.5507681 365.551114,27.4748744 366.305717,27.1400538 C367.073794,26.7918413 368.300024,24.6221967 369.054627,23.4436253 C369.822704,22.2784458 371.03546,19.4391601 371.803537,18.7159476 C372.55814,17.9927316 373.78437,17.8186253 374.538973,18.2204127 C375.307049,18.6088047 376.519802,20.8721967 377.287882,21.5820173 C378.042485,22.2784458 379.268712,23.4704127 380.036792,23.256127 C380.791395,23.0284458 382.017622,21.0998744 382.772225,19.9614824 C383.540305,18.8230904 384.753058,15.8766618 385.521134,15.046303 C386.275737,14.2293396 387.501967,13.7471967 388.25657,14.0552333 C389.024647,14.3498744 390.250877,16.519519 391.00548,17.2427316 C391.773557,17.9793396 392.986313,19.4257681 393.75439,19.3186253 C394.508993,19.2114824 395.735223,17.5373761 396.489826,16.4525556 C397.257902,15.3543396 399.238735,11.4302333 399.238735,11.4302333" id="Shape" stroke="#9B9B9B" sketch:type="MSShapeGroup" transform="translate(262.049268, 53.239670) scale(1, -1) translate(-262.049268, -53.239670) "></path>
                <path d="M152.483648,81.2276777 L426.862583,2.97321257" id="Shape" stroke="#E6E6E6" stroke-width="0.3985" sketch:type="MSShapeGroup" transform="translate(289.673116, 42.100445) scale(1, -1) translate(-289.673116, -42.100445) "></path>
                <path d="M152.483648,81.2382019 C152.483648,81.2382019 154.464481,83.6623081 155.219084,83.5015939 C155.987161,83.3274876 157.199917,81.1176636 157.967994,80.0596304 C158.722597,79.0149859 159.948827,76.282843 160.70343,75.907843 C161.471506,75.532843 162.697737,76.7515939 163.452339,77.3408796 C164.220416,77.9435573 165.433169,80.1667733 166.201249,80.2203447 C166.955852,80.2605207 168.182079,78.6801653 168.936682,77.6757001 C169.704762,76.6846304 170.917515,73.6042716 171.685591,73.0149859 C172.440194,72.4390921 173.666424,72.9748064 174.434501,73.4971287 C175.189104,74.019451 176.415334,76.5105207 177.169937,76.7515939 C177.938014,76.9926636 179.15077,76.1221287 179.918847,75.2248064 C180.67345,74.3274876 181.89968,71.0730224 182.654283,70.3096304 C183.422359,69.546235 184.64859,69.3587367 185.403192,69.7471287 C186.171269,70.1355207 187.384025,72.7203447 188.152102,73.1221287 C188.906705,73.5239161 190.132935,73.4033779 190.887538,72.6533779 C191.655615,71.9033779 192.868368,68.6489161 193.636448,67.7515939 C194.391051,66.8408796 195.617277,65.9033779 196.385358,66.131059 C197.139961,66.3587367 198.366187,68.8364144 199.12079,69.3587367 C199.88887,69.894451 201.101623,70.4971287 201.8697,69.921235 C202.624303,69.3587367 203.850533,66.3051653 204.605136,65.3007001 C205.373213,64.296235 206.599443,62.6489161 207.354046,62.6757001 C208.122122,62.7158796 209.334879,64.9123081 210.102955,65.5149859 C210.857558,66.1176636 212.083788,67.3765939 212.838391,67.0283779 C213.606468,66.6667733 214.819224,63.9748064 215.587301,62.9167733 C216.341904,61.8721287 217.568134,59.6087367 218.336211,59.421235 C219.090814,59.2337367 220.317044,60.9882019 221.071647,61.6042716 C221.839723,62.2337367 223.052476,64.0685573 223.820553,63.921235 C224.575156,63.7739161 225.801386,61.6176636 226.555989,60.5596304 C227.324066,59.5149859 228.536822,56.756059 229.304899,56.3542716 C230.072976,55.9658796 231.285732,57.1176636 232.053808,57.7203447 C232.808411,58.3096304 234.034641,60.5596304 234.789244,60.6265939 C235.557321,60.6935573 236.770077,59.1667733 237.538154,58.1757001 C238.292757,57.1846304 239.518987,54.0774876 240.27359,53.4882019 C241.041667,52.8855207 242.267897,53.3676636 243.0225,53.8765939 C243.790577,54.3855207 245.003329,56.8899859 245.77141,57.157843 C246.526012,57.4123081 247.752239,56.5953447 248.506842,55.7114144 C249.274922,54.8274876 250.487675,51.5596304 251.255752,50.782843 C252.010354,50.006059 253.236585,49.7515939 254.004662,50.1265939 C254.759264,50.5149859 255.985495,53.0998064 256.740097,53.5149859 C257.508174,53.9301653 258.72093,53.8632019 259.489007,53.1265939 C260.24361,52.3899859 261.46984,49.1489161 262.224443,48.2382019 C262.99252,47.3274876 264.21875,46.3230224 264.973353,46.5239161 C265.74143,46.7382019 266.954186,49.2024876 267.722263,49.7382019 C268.476865,50.2739161 269.703096,50.9301653 270.457698,50.381059 C271.225775,49.8453447 272.438528,46.8051653 273.206608,45.8007001 C273.961211,44.782843 275.187438,43.0819493 275.955518,43.0953447 C276.710121,43.1087367 277.936348,45.2783779 278.69095,45.881059 C279.459031,46.4837367 280.671783,47.8096304 281.43986,47.4614144 C282.194463,47.1265939 283.420693,44.4748064 284.175296,43.4167733 C284.943373,42.3587367 286.169603,40.0551653 286.924206,39.8542716 C287.692283,39.6533779 288.905039,41.3542716 289.673116,41.9837367 C290.427718,42.5998064 291.653949,44.4748064 292.408551,44.3542716 C293.176628,44.2203447 294.389384,42.1042716 295.157461,41.0596304 C295.912064,40.0149859 297.138294,37.2158796 297.906371,36.8007001 C298.660974,36.3855207 299.887204,37.4971287 300.641807,38.0864144 C301.409884,38.6757001 302.622636,40.9658796 303.390717,41.046235 C304.145319,41.1265939 305.371546,39.6533779 306.126149,38.6757001 C306.894229,37.6846304 308.120456,34.5640921 308.875059,33.9480224 C309.643139,33.3319493 310.855892,33.7471287 311.623969,34.256059 C312.378571,34.7515939 313.604802,37.282843 314.359404,37.5507001 C315.127481,37.8185573 316.340237,37.0685573 317.108314,36.1980224 C317.862917,35.3274876 319.089147,32.046235 319.857224,31.269451 C320.611827,30.4792716 321.838057,30.157843 322.59266,30.519451 C323.360737,30.881059 324.573493,33.4658796 325.34157,33.894451 C326.096172,34.3230224 327.322403,34.3230224 328.077005,33.5998064 C328.845082,32.8899859 330.071313,29.6489161 330.825915,28.7248064 C331.593992,27.8007001 332.806745,26.7426636 333.574825,26.9301653 C334.329428,27.1176636 335.555655,29.5685573 336.310257,30.1176636 C337.078338,30.6533779 338.29109,31.3765939 339.059167,30.8408796 C339.81377,30.3185573 341.04,27.3051653 341.794603,26.2873081 C342.56268,25.269451 343.78891,23.5149859 344.543513,23.5149859 C345.31159,23.5015939 346.524346,25.631059 347.292423,26.2471287 C348.047026,26.8632019 349.273256,28.2292716 350.027859,27.907843 C350.795935,27.5864144 352.008692,24.9748064 352.776768,23.9167733 C353.531371,22.8587367 354.757601,20.5015939 355.525678,20.2873081 C356.280281,20.0730224 357.506511,21.7203447 358.261114,22.3498064 C359.029191,22.9658796 360.241944,24.881059 361.010024,24.7739161 C361.764627,24.6667733 362.990853,22.6042716 363.745456,21.5596304 C364.513536,20.5149859 365.739763,17.6890921 366.494366,17.2605207 C367.262446,16.8185573 368.475199,17.8765939 369.243276,18.4524876 C369.997879,19.0417733 371.224109,21.3587367 371.978712,21.4524876 C372.746788,21.546235 373.959545,20.1399859 374.727621,19.1623081 C375.482224,18.1846304 376.708454,15.0373081 377.476531,14.407843 C378.231134,13.7783779 379.457364,14.1399859 380.211967,14.6355207 C380.980044,15.1176636 382.1928,17.6623081 382.960877,17.9435573 C383.71548,18.2248064 384.94171,17.5417733 385.696313,16.6846304 C386.46439,15.8274876 387.69062,12.546235 388.445223,11.7426636 C389.213299,10.9390921 390.426052,10.5640921 391.194132,10.9123081 C391.948735,11.2605207 393.174962,13.8319493 393.929565,14.2739161 C394.697645,14.7158796 395.910398,14.769451 396.678475,14.0730224 C397.433077,13.3765939 398.659308,10.1489161 399.427384,9.21141442 C400.181987,8.27391614 401.408217,7.16230814 402.16282,7.33641442 C402.930897,7.51052071 404.143653,9.93463042 404.91173,10.4837367 C405.666333,11.032843 406.892563,11.8230224 407.647166,11.3007001 C408.415243,10.7917733 409.641473,7.81855728 410.396076,6.78730814 C411.164152,5.76945099 412.376909,3.96141442 413.144985,3.93463042 C413.899588,3.90784299 415.125818,5.99712871 415.880421,6.61320185 C416.648498,7.22927157 417.861251,8.64891614 418.629331,8.35427157 C419.383934,8.04623499 420.610161,5.47480642 421.378241,4.41677328 C422.132844,3.35873671 423.35907,0.961414423 424.113673,0.720344708 C424.881754,0.479271566 426.862583,2.71587957 426.862583,2.71587957" id="Shape" stroke="#9B9B9B" sketch:type="MSShapeGroup" transform="translate(289.673116, 42.105707) scale(1, -1) translate(-289.673116, -42.105707) "></path>
                <path d="M0.552476986,136.437449 L1.94040698,149.361556 L3.31486019,159.446376 C3.31486019,159.446376 4.46227774,164.439175 4.68931686,164.964233 C4.91635598,165.489292 5.12260198,166.348524 6.07724771,165.834772 C7.03189345,165.32102 6.64866941,165.152144 7.45170093,163.477629 C8.25473245,161.803114 8.23777905,161.346377 8.8261576,160.102629 C9.41453615,158.858881 9.85695152,158.034855 10.214085,157.638343 C10.5712185,157.241832 10.8091293,156.933134 11.5885417,157.035662 C12.367954,157.13819 12.1659359,157.30436 12.9629949,157.999948 C13.7600538,158.695536 13.815876,159.018353 14.3509257,159.446376 C14.8859755,159.874399 15.1042497,160.152274 15.7253824,160.209772 C16.3465151,160.26727 16.1757837,160.386294 17.0998356,159.700841 C18.0238875,159.015389 17.7543315,159.042528 18.4877665,158.160662 C19.2212014,157.278796 19.3001024,156.976443 19.8622197,156.379413 C20.424337,155.782383 20.7719571,155.446053 21.2366764,155.241021 C21.7013956,155.035989 21.8139729,154.983804 22.6246072,155.160662 C23.4352415,155.337521 23.2978229,155.481552 23.9990604,155.843699 C24.700298,156.205845 24.8156935,156.412628 25.3735171,156.580307 C25.9313407,156.747986 25.9115711,156.904802 26.7614445,156.674057 C27.6113179,156.443313 27.3116367,156.521036 28.1359012,155.830307 C28.9601656,155.139578 28.8325337,155.070463 29.5103544,154.370486 C30.188175,153.67051 30.3730469,153.372338 30.8982852,152.977629 C31.4235236,152.58292 31.6936698,152.393337 32.2727419,152.294592 C32.851814,152.195848 32.8449813,152.239196 33.6471951,152.508878 C34.4494089,152.77856 34.3780779,152.931637 35.0216518,153.218699 C35.6652257,153.50576 35.7767266,153.685792 36.4095792,153.741021 C37.0424318,153.79625 36.8847979,153.937316 37.7840359,153.459772 C38.6832739,152.982228 38.3807014,153.065557 39.1584891,152.2812 C39.9362768,151.496844 39.9255732,151.318208 40.5464199,150.674057 C41.1672666,150.029907 41.4591342,149.676085 41.9208766,149.415127 C42.382619,149.154169 42.5152932,149.018376 43.2953298,149.120486 C44.0753664,149.222596 43.9027855,149.303739 44.6832607,149.776735 C45.4637359,150.249732 45.5117884,150.502017 46.0577139,150.794592 C46.6036394,151.087168 46.6569974,151.340146 47.4321705,151.249948 C48.2073437,151.159749 47.9017222,151.368131 48.8201014,150.473164 C49.7384806,149.578197 49.4646622,149.649701 50.1945546,148.557984 C50.924447,147.466267 51.0374761,147.029009 51.5690113,146.361556 C52.1005465,145.694102 52.4444483,145.225892 52.9569387,145.089233 C53.469429,144.952575 53.3289802,144.63353 54.3313953,145.624948 C55.3338105,146.616365 54.9745772,146.574178 55.7058486,147.807984 C56.43712,149.041791 57.0937794,150.285662 57.0937794,150.285662 C57.0937794,150.285662 57.3857474,151.945977 58.4682361,150.901735 C59.5507247,149.857494 58.8635578,151.659436 59.8426893,147.633878 C60.8218208,143.608321 60.4007066,145.640441 61.2306202,139.544592 C62.0605337,133.448744 61.8695836,134.3671 62.6050768,127.343699 C63.34057,120.320298 63.3165937,119.777456 63.97953,113.294592 C64.6424664,106.811728 64.7898412,104.987491 65.3674609,100.330307 C65.9450806,95.6731224 66.2906817,93.2910519 66.7419141,91.0222701 C67.1931465,88.7534882 67.9340307,86.8242503 68.1163708,86.5088781 C68.2987109,86.1935059 68.4303488,85.5120044 69.490824,86.2678049 C70.5512992,87.0236055 70.1570916,87.2635336 70.8787548,88.4776289 C71.6004181,89.6917242 71.8049617,90.3494974 72.2532115,90.9151272 C72.7014613,91.480757 72.9821244,91.9025592 73.6276647,91.9463763 C74.2732051,91.9901935 74.0901277,92.0807819 75.0155956,91.1026289 C75.9410635,90.1244759 75.69881,90.0774756 76.3900488,89.0267352 C77.0812876,87.9759948 77.2534816,87.5186797 77.7645055,86.9240575 C78.2755294,86.3294353 78.6776934,85.9735684 79.1524363,85.8124495 C79.6271793,85.6513306 80.5268895,85.9865558 80.5268895,85.9865558 C80.5268895,85.9865558 81.2363666,86.5054306 81.9013462,86.9374495 C82.5663258,87.3694683 82.7653115,87.6262408 83.2892736,87.7812003 C83.8132357,87.9361599 83.7662321,88.1042262 84.6637303,87.7544129 C85.5612285,87.4045996 85.2350029,87.473007 86.0381835,86.7097718 C86.841364,85.9465365 86.7779273,85.8207847 87.4261143,85.1294129 C88.0743013,84.4380412 88.3080848,84.104061 88.800571,83.7633432 C89.2930572,83.4226255 89.5272353,83.2715987 90.1750242,83.2276289 C90.8228131,83.1836591 90.7773659,83.2673314 91.5629551,83.5758415 C92.3485442,83.8843515 92.3353725,84.0631315 92.9374083,84.3124495 C93.539444,84.5617675 93.6093013,84.7244524 94.311865,84.7142335 C95.0144286,84.7040146 94.8173073,84.8113688 95.6997958,84.2722701 C96.5822843,83.7331713 96.3326403,83.7710464 97.074249,83.0267352 C97.8158578,82.282424 98.4487057,81.5133432 98.4487057,81.5133432 C98.4487057,81.5133432 99.3349207,80.670715 99.8231589,80.4553066 C100.311397,80.2398983 100.421421,80.1605929 101.21109,80.2945923 C102.000759,80.4285918 101.859853,80.5528191 102.585543,80.9240575 C103.311233,81.2952958 103.404429,81.5095988 103.96,81.7008415 C104.51557,81.8920842 104.49611,82.093831 105.347931,81.8749478 C106.199751,81.6560645 105.869693,81.7845032 106.722384,80.9910209 C107.575075,80.1975386 108.09684,79.3169146 108.09684,79.3169146 C108.09684,79.3169146 108.978066,78.0803267 109.484768,77.6160209 C109.99147,77.1517151 110.268316,76.8662724 110.859224,76.7856621 C111.450133,76.7050517 111.328236,76.6440016 112.233678,77.2410209 C113.139119,77.8380403 112.962952,77.9907727 113.621609,78.6070906 C114.280265,79.2234086 114.548436,79.6491901 114.996065,79.8258415 C115.443694,80.0024929 115.320922,80.5061152 116.370518,79.6919146 C117.420115,78.8777141 116.910889,79.3102365 117.758449,77.6829843 C118.606009,76.0557322 118.494458,75.8129711 119.132902,74.3883432 C119.771347,72.9637153 120.244908,71.8353564 120.507359,71.5490575 C120.76981,71.2627586 120.704214,69.6252176 121.89529,71.3749478 C123.086366,73.124678 122.337641,71.1203288 123.269743,75.6070906 C124.201845,80.0938525 123.843883,78.402691 124.6442,84.6070906 C125.444517,90.8114903 125.320297,90.4201929 126.032127,97.0222701 C126.743957,103.624347 126.779861,104.694813 127.406584,110.227629 C128.033306,115.760445 128.25347,117.875461 128.781037,121.290127 C129.308604,124.704793 129.844832,127.073039 130.168968,128.107091 C130.493104,129.141142 130.90484,130.034182 131.543425,130.102629 C132.182009,130.171076 132.024421,130.034102 132.917878,128.401735 C133.811335,126.769368 133.651733,126.512093 134.292335,125.080307 C134.932936,123.648521 135.25787,122.833802 135.680262,122.227629 C136.102654,121.621455 136.486883,121.215616 137.054719,121.116021 C137.622554,121.016426 137.550016,121.084813 138.429172,121.745486 C139.308327,122.406159 139.217099,122.653751 139.817103,123.191915 C140.417106,123.730078 140.702808,124.068384 141.191559,124.223164 C141.680311,124.377943 141.616711,124.573327 142.566013,124.062449 C143.515314,123.551572 143.173817,123.621611 143.953943,122.736556 C144.73407,121.851501 144.722748,121.627848 145.328397,120.928519 C145.934045,120.22919 146.241416,119.853283 146.702853,119.562449 C147.164291,119.271616 147.363252,119.145122 148.090784,119.187449 C148.818316,119.229777 148.705028,119.349082 149.465237,119.723164 C150.225447,120.097246 150.27259,120.30917 150.839694,120.540127 C151.406798,120.771084 151.468555,120.929127 152.227621,120.848164 C152.986688,120.7672 153.602078,120.245486 153.602078,120.245486 C153.602078,120.245486 154.25853,119.630794 154.976531,118.892805 C155.694532,118.154816 155.800849,117.895328 156.364462,117.4062 C156.928075,116.917073 157.232304,116.665796 157.738919,116.495486 C158.245534,116.325176 159.113372,116.482091 159.113372,116.482091 C159.113372,116.482091 159.81243,116.804321 160.501303,117.124948 C161.190176,117.445574 161.302819,117.642192 161.875756,117.767805 C162.448694,117.893418 162.365381,118.049372 163.250213,117.727629 C164.135045,117.405885 163.820111,117.51293 164.638144,116.763343 C165.456176,116.013756 165.353796,115.912144 166.012597,115.196376 C166.671398,114.480609 166.894955,114.133968 167.387054,113.776735 C167.879152,113.419503 168.10269,113.232783 168.761507,113.200841 C169.420324,113.1689 170.149438,113.642805 170.149438,113.642805 C170.149438,113.642805 170.91768,114.275129 171.523891,114.64727 C172.130101,115.019411 172.273937,115.26976 172.898348,115.330307 C173.522758,115.390853 173.325305,115.637286 174.286278,114.915127 C175.247252,114.192969 174.88058,114.36429 175.660732,113.254413 C176.440883,112.144536 176.444657,111.83184 177.035188,111.004413 C177.625719,110.176986 178.047088,109.602649 178.423116,109.383878 C178.799143,109.165107 178.768856,108.705619 179.797572,109.39727 C180.826289,110.088921 180.372092,109.948368 181.172026,111.232091 C181.971959,112.515813 182.068969,113.132835 182.559956,113.830307 C183.050944,114.527779 183.934413,115.1562 183.934413,115.1562 C183.934413,115.1562 184.261758,116.447993 185.308866,113.066915 C186.355975,109.685836 185.837584,111.868609 186.696797,106.236556 C187.55601,100.604502 187.313881,101.882121 188.07125,94.9597718 C188.82862,88.0374228 188.763193,87.8752099 189.445707,81.1115558 C190.128221,74.3479016 190.231084,72.8169308 190.833638,67.5847718 C191.436192,62.3526128 191.717201,60.0260153 192.208091,57.1249478 C192.698981,54.2238803 193.315094,52.0187025 193.582548,51.3392335 C193.850002,50.6597645 194.175226,49.9490102 194.970475,50.1070906 C195.765724,50.2651711 195.541961,50.6129907 196.344932,51.8883432 C197.147903,53.1636958 197.193552,53.6955979 197.719385,54.4731638 C198.245219,55.2507296 198.671999,55.7958781 199.107316,55.9731638 C199.542633,56.1504495 199.487444,56.407184 200.481773,55.5981638 C201.476101,54.7891435 201.115763,54.8332594 201.856226,53.7365558 C202.596688,52.6398522 203.230682,51.5267352 203.230682,51.5267352 C203.230682,51.5267352 204.206565,50.3294291 204.61861,50.0936986 C205.030654,49.8579682 205.152202,49.7374421 205.993067,49.9463763 C206.833931,50.1553106 206.645526,50.3111757 207.36752,50.7767352 C208.089514,51.2422947 208.234038,51.5001129 208.755451,51.7276289 C209.276863,51.955145 209.310617,52.1457484 210.129907,51.9820906 C210.949198,51.8184329 210.655752,51.8902941 211.50436,51.1785192 C212.352969,50.4667444 212.892291,49.6651272 212.892291,49.6651272 C212.892291,49.6651272 213.740361,48.6011045 214.266745,48.1651272 C214.793128,47.7291499 215.088717,47.5142379 215.641201,47.3883432 C216.193686,47.2624485 216.220739,47.2887449 217.029132,47.5356621 C217.837526,47.7825792 217.754841,47.9381428 218.403585,48.2320906 C219.05233,48.5260385 219.162407,48.700611 219.778042,48.7812003 C220.393677,48.8617897 220.270421,49.0061777 221.165969,48.5936986 C222.061517,48.1812195 222.540426,47.5088781 222.540426,47.5088781 C222.540426,47.5088781 223.281087,46.625412 223.914879,45.9954861 C224.548671,45.3655601 224.810203,45.0571049 225.30281,44.7633432 C225.795417,44.4695815 225.977004,44.334517 226.677263,44.3481638 C227.377523,44.3618106 227.269676,44.4529234 228.05172,44.8169146 C228.833764,45.1809059 228.859482,45.3807236 229.439651,45.6338781 C230.01982,45.8870325 230.076807,46.0761526 230.814104,46.0222701 C231.551401,45.9683875 231.285462,46.1247855 232.188561,45.4329843 C233.09166,44.7411832 233.576488,43.9062003 233.576488,43.9062003 C233.576488,43.9062003 234.388828,42.7219773 234.950945,42.1249478 C235.513061,41.5279183 235.863074,41.1577434 236.325398,40.9865558 C236.787722,40.8153682 236.766658,40.6546496 237.699855,41.1070906 C238.633052,41.5595316 238.36664,41.6510494 239.087786,42.3258415 C239.808931,43.0006335 240.015583,43.4177215 240.462239,43.6919146 C240.908894,43.9661078 240.878586,44.4267667 241.836695,44.0133432 C242.794805,43.5999197 242.317282,44.0132239 243.224623,42.4999478 C244.131964,40.9866716 243.903409,40.9924151 244.599079,39.4062003 C245.29475,37.8199856 245.587114,36.8259812 245.973533,36.2320906 C246.359951,35.6382 246.385563,34.4935271 247.361464,35.1606621 C248.337364,35.827797 247.744877,34.2384337 248.73592,38.1204861 C249.726963,42.0025384 249.281726,40.0669426 250.110373,45.9285192 C250.939021,51.7900958 250.764951,51.0189649 251.498304,57.6606621 C252.231657,64.3023592 252.223444,64.999006 252.872757,70.9463763 C253.522071,76.8937467 253.689113,78.8102418 254.247214,82.8392335 C254.805315,86.8682252 255.23506,89.2550914 255.635145,90.8883432 C256.03523,92.521595 256.660436,93.8217242 257.009598,94.1160209 C257.35876,94.4103176 257.362168,94.6965835 258.384055,93.2053066 C259.405941,91.7140298 259.080113,91.6512719 259.771982,90.0847718 C260.463852,88.5182716 260.661078,87.7903122 261.146439,86.9508415 C261.631799,86.1113707 262.126257,85.5292905 262.520892,85.3303066 C262.915527,85.1313228 262.966177,85.0186986 263.908823,85.5579843 C264.851469,86.0972701 264.618647,86.2824637 265.28328,86.9106621 C265.947913,87.5388604 266.204569,87.9211132 266.657733,88.1562003 C267.110897,88.3912875 267.152978,88.6293476 268.045664,88.3436986 C268.93835,88.0580497 268.595128,88.1243822 269.420117,87.2722701 C270.245106,86.4201579 270.143202,86.2946195 270.794574,85.5044129 C271.445945,84.7142063 271.682989,84.3262647 272.169027,83.9374495 C272.655065,83.5486343 273.556958,83.2945923 273.556958,83.2945923 L274.931414,83.6294129" id="Shape" stroke="#000000" stroke-width="2" sketch:type="MSShapeGroup" transform="translate(137.741946, 100.475421) scale(1, -1) translate(-137.741946, -100.475421) "></path>
                <path d="M0.552476986,142.781249 L274.944889,64.513392" id="Shape" stroke="#000000" stroke-width="0.3985" sketch:type="MSShapeGroup" transform="translate(137.748683, 103.647321) scale(1, -1) translate(-137.748683, -103.647321) "></path>
                <path d="M295.561711,85.151784 L440.580184,143.892857" id="Shape" stroke="#000000" stroke-width="0.3985" sketch:type="MSShapeGroup" transform="translate(368.070948, 114.522321) scale(1, -1) translate(-368.070948, -114.522321) "></path>
                <path d="M302.474413,107.638392 L302.474413,141.093751 M302.474413,107.638392 L302.474413,141.093751" id="Shape" stroke="#000000" stroke-width="2" sketch:type="MSShapeGroup" transform="translate(304.199220, 124.366071) scale(1, -1) translate(-304.199220, -124.366071) "></path>
                <path d="M330.098261,118.754465 L330.098261,129.897322 M330.098261,118.754465 L330.098261,129.897322" id="Shape" stroke="#000000" stroke-width="2" sketch:type="MSShapeGroup" transform="translate(331.823067, 124.325894) scale(1, -1) translate(-331.823067, -124.325894) "></path>
                <path d="M357.708634,112.017857 L357.708634,118.714286 M357.708634,112.017857 L357.708634,118.714286" id="Shape" stroke="#000000" stroke-width="2" sketch:type="MSShapeGroup" transform="translate(359.433441, 115.366071) scale(1, -1) translate(-359.433441, -115.366071) "></path>
                <path d="M385.332485,102.75 L385.332485,107.531249 M385.332485,102.75 L385.332485,107.531249" id="Shape" stroke="#000000" stroke-width="2" sketch:type="MSShapeGroup" transform="translate(387.057292, 105.140625) scale(1, -1) translate(-387.057292, -105.140625) "></path>
                <path d="M412.956333,92.625 L412.956333,96.3348206 M412.956333,92.625 L412.956333,96.3348206" id="Shape" stroke="#000000" stroke-width="2" sketch:type="MSShapeGroup" transform="translate(414.681139, 94.479910) scale(1, -1) translate(-414.681139, -94.479910) "></path>
            </g>
        </g>
    </g>
</svg>